<svg xmlns="http://www.w3.org/2000/svg" width="20" height="20"  viewBox="0 0 20 20"><g transform="matrix(1 0 0 1 0 0)"  ><g style=""   ><g transform="matrix(0.83 0 0 0.83 13.75 16.67)"  ><path style="stroke: none; stroke-width: 1; stroke-dasharray: none; stroke-linecap: butt; stroke-dashoffset: 0; stroke-linejoin: miter; stroke-miterlimit: 4; fill: rgb(86,93,109); fill-rule: nonzero; opacity: 1;"  transform=" translate(-16.5, -20)" d="M 21 19 C 21.5523 19 22 19.4477 22 20 C 22 20.5523 21.5523 21 21 21 L 12 21 C 11.4477 21 11 20.5523 11 20 C 11 19.4477 11.4477 19 12 19 L 21 19 Z" stroke-linecap="round" /></g><g transform="matrix(0.83 0 0 0.83 9.58 9.58)"  ><path style="stroke: none; stroke-width: 1; stroke-dasharray: none; stroke-linecap: butt; stroke-dashoffset: 0; stroke-linejoin: miter; stroke-miterlimit: 4; fill: rgb(86,93,109); fill-rule: nonzero; opacity: 1;"  transform=" translate(-11.5, -11.5)" d="M 19 5.12329 C 19 4.82559 18.8814 4.53989 18.6709 4.32935 C 18.4868 4.1452 18.2452 4.03169 17.9883 4.0061 L 17.877 4.00024 C 17.6164 4.00025 17.3648 4.09043 17.1651 4.25415 L 17.083 4.32935 L 5.07228 16.3401 C 4.983 16.4293 4.91127 16.5345 4.86134 16.6497 L 4.81935 16.7668 L 4.23536 18.7629 L 6.23243 18.1809 L 6.23341 18.1809 L 6.35157 18.1379 C 6.46661 18.088 6.57195 18.0172 6.66115 17.928 L 18.6709 5.91724 L 18.7451 5.83423 C 18.9088 5.63452 18.9999 5.38372 19 5.12329 Z M 21 5.12329 C 20.9999 5.89975 20.7102 6.6462 20.1914 7.21899 L 20.085 7.3313 L 8.07521 19.342 C 7.76288 19.6544 7.38572 19.8929 6.97169 20.0422 L 6.79298 20.1008 L 3.92091 20.9387 C 3.66285 21.014 3.38932 21.0191 3.12892 20.9524 C 2.8685 20.8857 2.63057 20.7499 2.44044 20.5598 C 2.25032 20.3697 2.11461 20.1318 2.04786 19.8713 C 1.98117 19.611 1.98539 19.3374 2.06056 19.0793 L 2.89943 16.2073 L 2.89943 16.2063 L 2.95802 16.0276 C 3.10752 15.6141 3.34618 15.2379 3.65822 14.926 L 15.669 2.91528 L 15.7813 2.80786 C 16.3541 2.2893 17.1006 2.00025 17.877 2.00024 L 18.0322 2.00415 C 18.8039 2.04253 19.536 2.36635 20.085 2.91528 C 20.6705 3.5009 21 4.29516 21 5.12329 Z" stroke-linecap="round" /></g><g transform="matrix(0.83 0 0 0.83 13.75 5.42)"  ><path style="stroke: none; stroke-width: 1; stroke-dasharray: none; stroke-linecap: butt; stroke-dashoffset: 0; stroke-linejoin: miter; stroke-miterlimit: 4; fill: rgb(86,93,109); fill-rule: nonzero; opacity: 1;"  transform=" translate(-16.5, -6.5)" d="M 14.293 4.29298 C 14.6591 3.92686 15.2381 3.90427 15.6309 4.22462 L 15.707 4.29298 L 18.707 7.29298 L 18.7754 7.36915 C 19.0958 7.76192 19.0732 8.34092 18.707 8.70704 C 18.3409 9.07316 17.7619 9.09575 17.3692 8.7754 L 17.293 8.70704 L 14.293 5.70704 L 14.2246 5.63087 C 13.9043 5.2381 13.9269 4.65909 14.293 4.29298 Z" stroke-linecap="round" /></g></g></g></svg>