<svg xmlns="http://www.w3.org/2000/svg" viewBox="0 0 667 310"><g transform="matrix(1 0 0 1 0 0)"  ><g style=""   ><g transform="matrix(1 0 0 1 333.5 155)"  ><g style=""   ><g transform="matrix(1 0 0 1 25 125)"  ><line style="stroke: rgb(243,244,246); stroke-width: 1; stroke-dasharray: 3 3; stroke-linecap: butt; stroke-dashoffset: 0; stroke-linejoin: miter; stroke-miterlimit: 4; fill: none; fill-rule: nonzero; opacity: 1;"  x1="-298.5" y1="0" x2="298.5" y2="0" /></g><g transform="matrix(1 0 0 1 25 57.5)"  ><line style="stroke: rgb(243,244,246); stroke-width: 1; stroke-dasharray: 3 3; stroke-linecap: butt; stroke-dashoffset: 0; stroke-linejoin: miter; stroke-miterlimit: 4; fill: none; fill-rule: nonzero; opacity: 1;"  x1="-298.5" y1="0" x2="298.5" y2="0" /></g><g transform="matrix(1 0 0 1 25 -10)"  ><line style="stroke: rgb(243,244,246); stroke-width: 1; stroke-dasharray: 3 3; stroke-linecap: butt; stroke-dashoffset: 0; stroke-linejoin: miter; stroke-miterlimit: 4; fill: none; fill-rule: nonzero; opacity: 1;"  x1="-298.5" y1="0" x2="298.5" y2="0" /></g><g transform="matrix(1 0 0 1 25 -77.5)"  ><line style="stroke: rgb(243,244,246); stroke-width: 1; stroke-dasharray: 3 3; stroke-linecap: butt; stroke-dashoffset: 0; stroke-linejoin: miter; stroke-miterlimit: 4; fill: none; fill-rule: nonzero; opacity: 1;"  x1="-298.5" y1="0" x2="298.5" y2="0" /></g><g transform="matrix(1 0 0 1 25 -145)"  ><line style="stroke: rgb(243,244,246); stroke-width: 1; stroke-dasharray: 3 3; stroke-linecap: butt; stroke-dashoffset: 0; stroke-linejoin: miter; stroke-miterlimit: 4; fill: none; fill-rule: nonzero; opacity: 1;"  x1="-298.5" y1="0" x2="298.5" y2="0" /></g><g transform="matrix(1 0 0 1 -273.5 129.14)" style=""  ><text xml:space="preserve" font-family="Manrope" font-size="12" font-style="normal" font-weight="400" style="stroke: none; stroke-width: 1; stroke-dasharray: none; stroke-linecap: butt; stroke-dashoffset: 0; stroke-linejoin: miter; stroke-miterlimit: 4; fill: rgb(86,93,109); fill-rule: nonzero; opacity: 1; white-space: pre;" ></text></g><g transform="matrix(1 0 0 1 -124.25 129.14)" style=""  ><text xml:space="preserve" font-family="Manrope" font-size="12" font-style="normal" font-weight="400" style="stroke: none; stroke-width: 1; stroke-dasharray: none; stroke-linecap: butt; stroke-dashoffset: 0; stroke-linejoin: miter; stroke-miterlimit: 4; fill: rgb(86,93,109); fill-rule: nonzero; opacity: 1; white-space: pre;" ></text></g><g transform="matrix(1 0 0 1 25 129.14)" style=""  ><text xml:space="preserve" font-family="Manrope" font-size="12" font-style="normal" font-weight="400" style="stroke: none; stroke-width: 1; stroke-dasharray: none; stroke-linecap: butt; stroke-dashoffset: 0; stroke-linejoin: miter; stroke-miterlimit: 4; fill: rgb(86,93,109); fill-rule: nonzero; opacity: 1; white-space: pre;" ></text></g><g transform="matrix(1 0 0 1 174.25 129.14)" style=""  ><text xml:space="preserve" font-family="Manrope" font-size="12" font-style="normal" font-weight="400" style="stroke: none; stroke-width: 1; stroke-dasharray: none; stroke-linecap: butt; stroke-dashoffset: 0; stroke-linejoin: miter; stroke-miterlimit: 4; fill: rgb(86,93,109); fill-rule: nonzero; opacity: 1; white-space: pre;" ></text></g><g transform="matrix(1 0 0 1 323.13 129.14)" style=""  ><text xml:space="preserve" font-family="Manrope" font-size="12" font-style="normal" font-weight="400" style="stroke: none; stroke-width: 1; stroke-dasharray: none; stroke-linecap: butt; stroke-dashoffset: 0; stroke-linejoin: miter; stroke-miterlimit: 4; fill: rgb(86,93,109); fill-rule: nonzero; opacity: 1; white-space: pre;" ></text></g><g transform="matrix(1 0 0 1 -282.5 121.14)" style=""  ><text xml:space="preserve" font-family="Manrope" font-size="12" font-style="normal" font-weight="400" style="stroke: none; stroke-width: 1; stroke-dasharray: none; stroke-linecap: butt; stroke-dashoffset: 0; stroke-linejoin: miter; stroke-miterlimit: 4; fill: rgb(86,93,109); fill-rule: nonzero; opacity: 1; white-space: pre;" ></text></g><g transform="matrix(1 0 0 1 -282.5 53.64)" style=""  ><text xml:space="preserve" font-family="Manrope" font-size="12" font-style="normal" font-weight="400" style="stroke: none; stroke-width: 1; stroke-dasharray: none; stroke-linecap: butt; stroke-dashoffset: 0; stroke-linejoin: miter; stroke-miterlimit: 4; fill: rgb(86,93,109); fill-rule: nonzero; opacity: 1; white-space: pre;" ></text></g><g transform="matrix(1 0 0 1 -282.5 -13.86)" style=""  ><text xml:space="preserve" font-family="Manrope" font-size="12" font-style="normal" font-weight="400" style="stroke: none; stroke-width: 1; stroke-dasharray: none; stroke-linecap: butt; stroke-dashoffset: 0; stroke-linejoin: miter; stroke-miterlimit: 4; fill: rgb(86,93,109); fill-rule: nonzero; opacity: 1; white-space: pre;" ></text></g><g transform="matrix(1 0 0 1 -282.5 -81.36)" style=""  ><text xml:space="preserve" font-family="Manrope" font-size="12" font-style="normal" font-weight="400" style="stroke: none; stroke-width: 1; stroke-dasharray: none; stroke-linecap: butt; stroke-dashoffset: 0; stroke-linejoin: miter; stroke-miterlimit: 4; fill: rgb(86,93,109); fill-rule: nonzero; opacity: 1; white-space: pre;" ></text></g><g transform="matrix(1 0 0 1 -282.5 -148.86)" style=""  ><text xml:space="preserve" font-family="Manrope" font-size="12" font-style="normal" font-weight="400" style="stroke: none; stroke-width: 1; stroke-dasharray: none; stroke-linecap: butt; stroke-dashoffset: 0; stroke-linejoin: miter; stroke-miterlimit: 4; fill: rgb(86,93,109); fill-rule: nonzero; opacity: 1; white-space: pre;" ></text></g><g transform="matrix(1 0 0 1 25 -3.25)"  ><linearGradient id="SVGID_colorBaca_452" gradientUnits="objectBoundingBox" gradientTransform="matrix(1 0 0 1 0 0)"  x1="0" y1="0" x2="0" y2="1"><stop offset="5%" style="stop-color:rgb(61,138,245);stop-opacity: 0.3"/><stop offset="95%" style="stop-color:rgb(61,138,245);stop-opacity: 0"/></linearGradient><path style="stroke: none; stroke-width: 3; stroke-dasharray: none; stroke-linecap: butt; stroke-dashoffset: 0; stroke-linejoin: miter; stroke-miterlimit: 4; fill: url(#SVGID_colorBaca_452); fill-rule: nonzero; opacity: 1;"  transform=" translate(-358.5, -151.75)" d="M 60 172 C 109.75 158.5 159.5 145 209.25 131.5 C 259 118 308.75 104.5 358.5 91 C 408.25 77.5 458 61.75 507.75 50.5 C 557.5 39.25 607.25 31.375 657 23.5 L 657 280 C 607.25 280 557.5 280 507.75 280 C 458 280 408.25 280 358.5 280 C 308.75 280 259 280 209.25 280 C 159.5 280 109.75 280 60 280 Z" stroke-linecap="round" /></g><g transform="matrix(1 0 0 1 25 -57.25)"  ><path style="stroke: rgb(61,138,245); stroke-width: 3; stroke-dasharray: none; stroke-linecap: butt; stroke-dashoffset: 0; stroke-linejoin: miter; stroke-miterlimit: 4; fill: none; fill-rule: nonzero; opacity: 1;"  transform=" translate(-358.5, -97.75)" d="M 60 172 C 109.75 158.5 159.5 145 209.25 131.5 C 259 118 308.75 104.5 358.5 91 C 408.25 77.5 458 61.75 507.75 50.5 C 557.5 39.25 607.25 31.375 657 23.5" stroke-linecap="round" /></g></g></g></g></g></svg>