<svg xmlns="http://www.w3.org/2000/svg" width="16" height="16"  viewBox="0 0 16 16"><g transform="matrix(1 0 0 1 0 0)"  ><g style=""   ><g transform="matrix(0.67 0 0 0.67 8 8)"  ><path style="stroke: none; stroke-width: 1; stroke-dasharray: none; stroke-linecap: butt; stroke-dashoffset: 0; stroke-linejoin: miter; stroke-miterlimit: 4; fill: rgb(255,255,255); fill-rule: nonzero; opacity: 1;"  transform=" translate(-12, -12)" d="M 3 20 L 3 4 C 3 3.20435 3.3163 2.44152 3.87891 1.87891 C 4.44152 1.3163 5.20435 1 6 1 L 15 1 L 15.0986 1.00488 C 15.3276 1.02757 15.5429 1.12883 15.707 1.29297 L 20.707 6.29297 C 20.8946 6.48051 21 6.73478 21 7 L 21 20 C 21 20.7957 20.6837 21.5585 20.1211 22.1211 C 19.5585 22.6837 18.7957 23 18 23 L 6 23 C 5.20435 23 4.44152 22.6837 3.87891 22.1211 C 3.3163 21.5585 3 20.7956 3 20 Z M 5 20 C 5 20.2652 5.10543 20.5195 5.29297 20.707 C 5.48051 20.8946 5.73478 21 6 21 L 18 21 C 18.2652 21 18.5195 20.8946 18.707 20.707 C 18.8946 20.5195 19 20.2652 19 20 L 19 7.41406 L 14.5859 3 L 6 3 C 5.73478 3 5.48051 3.10543 5.29297 3.29297 C 5.10543 3.48051 5 3.73478 5 4 L 5 20 Z" stroke-linecap="round" /></g><g transform="matrix(0.67 0 0 0.67 11.33 3.33)"  ><path style="stroke: none; stroke-width: 1; stroke-dasharray: none; stroke-linecap: butt; stroke-dashoffset: 0; stroke-linejoin: miter; stroke-miterlimit: 4; fill: rgb(255,255,255); fill-rule: nonzero; opacity: 1;"  transform=" translate(-17, -5)" d="M 13 6 L 13 2 C 13 1.44772 13.4477 1 14 1 C 14.5523 1 15 1.44772 15 2 L 15 6 C 15 6.26522 15.1054 6.51949 15.293 6.70703 C 15.4805 6.89457 15.7348 7 16 7 L 20 7 C 20.5523 7 21 7.44772 21 8 C 21 8.55228 20.5523 9 20 9 L 16 9 C 15.2044 9 14.4415 8.6837 13.8789 8.12109 C 13.3163 7.55848 13 6.79565 13 6 Z" stroke-linecap="round" /></g><g transform="matrix(0.67 0 0 0.67 6 10)"  ><path style="stroke: none; stroke-width: 1; stroke-dasharray: none; stroke-linecap: butt; stroke-dashoffset: 0; stroke-linejoin: miter; stroke-miterlimit: 4; fill: rgb(255,255,255); fill-rule: nonzero; opacity: 1;"  transform=" translate(-9, -15)" d="M 8 17 L 8 16 C 7.44772 16 7 15.5523 7 15 C 7 14.4477 7.44772 14 8 14 L 8 13 C 8 12.4696 8.21087 11.961 8.58594 11.5859 C 8.96101 11.2109 9.46957 11 10 11 C 10.5523 11 11 11.4477 11 12 C 11 12.5523 10.5523 13 10 13 L 10 14 C 10 14.3546 9.90393 14.6983 9.72949 15 C 9.90393 15.3017 10 15.6454 10 16 L 10 17 C 10.5523 17 11 17.4477 11 18 C 11 18.5523 10.5523 19 10 19 C 9.46957 19 8.96101 18.7891 8.58594 18.4141 C 8.21086 18.039 8 17.5304 8 17 Z" stroke-linecap="round" /></g><g transform="matrix(0.67 0 0 0.67 10 10)"  ><path style="stroke: none; stroke-width: 1; stroke-dasharray: none; stroke-linecap: butt; stroke-dashoffset: 0; stroke-linejoin: miter; stroke-miterlimit: 4; fill: rgb(255,255,255); fill-rule: nonzero; opacity: 1;"  transform=" translate(-15, -15)" d="M 14 16 C 14 15.6456 14.0952 15.3016 14.2695 15 C 14.0952 14.6984 14 14.3544 14 14 L 14 13 C 13.4477 13 13 12.5523 13 12 C 13 11.4477 13.4477 11 14 11 C 14.5304 11 15.039 11.2109 15.4141 11.5859 C 15.7891 11.961 16 12.4696 16 13 L 16 14 C 16.5523 14 17 14.4477 17 15 C 17 15.5523 16.5523 16 16 16 L 16 17 C 16 17.5304 15.7891 18.039 15.4141 18.4141 C 15.039 18.7891 14.5304 19 14 19 C 13.4477 19 13 18.5523 13 18 C 13 17.4477 13.4477 17 14 17 L 14 16 Z" stroke-linecap="round" /></g></g></g></svg>