<svg xmlns="http://www.w3.org/2000/svg" width="24" height="24"  viewBox="0 0 24 24"><g transform="matrix(1 0 0 1 0 0)"  ><g style=""   ><g transform="matrix(1 0 0 1 17 17)"  ><path style="stroke: none; stroke-width: 1; stroke-dasharray: none; stroke-linecap: butt; stroke-dashoffset: 0; stroke-linejoin: miter; stroke-miterlimit: 4; fill: rgb(61,138,245); fill-rule: nonzero; opacity: 1;"  transform=" translate(-17, -17)" d="M 19.0001 13.4142 L 13.4142 19.0001 L 15.0001 20.5861 L 20.5861 15.0001 L 19.0001 13.4142 Z M 22.5861 15.0001 C 22.586 15.4642 22.4245 15.9118 22.1329 16.2677 L 22.0001 16.4142 L 16.4142 22.0001 C 16.0392 22.375 15.5304 22.586 15.0001 22.5861 C 14.536 22.5861 14.0884 22.4245 13.7325 22.1329 L 13.5861 22.0001 L 12.0001 20.4142 C 11.6252 20.0392 11.4142 19.5304 11.4142 19.0001 C 11.4142 18.4698 11.6252 17.9611 12.0001 17.5861 L 17.5861 12.0001 L 17.7325 11.8673 C 18.0884 11.5757 18.536 11.4142 19.0001 11.4142 C 19.5304 11.4142 20.0392 11.6252 20.4142 12.0001 L 22.0001 13.5861 L 22.1329 13.7325 C 22.4245 14.0884 22.5861 14.536 22.5861 15.0001 Z" stroke-linecap="round" /></g><g transform="matrix(1 0 0 1 10 10)"  ><path style="stroke: none; stroke-width: 1; stroke-dasharray: none; stroke-linecap: butt; stroke-dashoffset: 0; stroke-linejoin: miter; stroke-miterlimit: 4; fill: rgb(61,138,245); fill-rule: nonzero; opacity: 1;"  transform=" translate(-10, -10)" d="M 2.45903 1.07423 C 2.74772 0.993125 3.05045 0.978773 3.34477 1.03028 L 3.46977 1.05567 L 3.4893 1.06056 L 16.1329 4.38282 L 16.1319 4.38282 C 16.4953 4.47416 16.8261 4.66532 17.086 4.93556 C 17.3503 5.21049 17.5307 5.55575 17.6055 5.9297 L 18.9805 12.8037 L 18.9952 12.9053 C 19.0438 13.4097 18.7039 13.8789 18.1963 13.9805 C 17.6885 14.0821 17.194 13.7795 17.045 13.2949 L 17.0196 13.1963 L 15.6446 6.32228 C 15.6381 6.32071 15.6315 6.31908 15.625 6.31739 L 3.00004 3.00001 L 6.31743 15.625 L 6.32231 15.6445 L 13.1963 17.0195 L 13.295 17.0449 C 13.7796 17.1939 14.0821 17.6885 13.9805 18.1963 C 13.8789 18.7039 13.4097 19.0438 12.9053 18.9951 L 12.8038 18.9805 L 5.92973 17.6055 C 5.55578 17.5306 5.21052 17.3502 4.93559 17.0859 C 4.66536 16.826 4.47419 16.4953 4.38286 16.1318 L 4.38286 16.1328 L 1.06059 3.48927 L 1.05571 3.46974 C 0.975285 3.13684 0.981636 2.78871 1.07426 2.45899 C 1.16703 2.12904 1.34363 1.8283 1.58598 1.58595 C 1.82834 1.34359 2.12908 1.167 2.45903 1.07423 Z" stroke-linecap="round" /></g><g transform="matrix(1 0 0 1 5.94 5.94)"  ><path style="stroke: none; stroke-width: 1; stroke-dasharray: none; stroke-linecap: butt; stroke-dashoffset: 0; stroke-linejoin: miter; stroke-miterlimit: 4; fill: rgb(61,138,245); fill-rule: nonzero; opacity: 1;"  transform=" translate(-5.94, -5.94)" d="M 1.59303 1.59303 C 1.95914 1.22691 2.53814 1.20432 2.93092 1.52467 L 3.00709 1.59303 L 10.2932 8.87916 L 10.3616 8.95533 C 10.6818 9.3481 10.6593 9.92715 10.2932 10.2932 C 9.92715 10.6593 9.3481 10.6818 8.95533 10.3616 L 8.87916 10.2932 L 1.59303 3.00709 L 1.52467 2.93092 C 1.20432 2.53814 1.22691 1.95914 1.59303 1.59303 Z" stroke-linecap="round" /></g><g transform="matrix(1 0 0 1 11 11)"  ><path style="stroke: none; stroke-width: 1; stroke-dasharray: none; stroke-linecap: butt; stroke-dashoffset: 0; stroke-linejoin: miter; stroke-miterlimit: 4; fill: rgb(61,138,245); fill-rule: nonzero; opacity: 1;"  transform=" translate(-11, -11)" d="M 12 11 C 12 10.4477 11.5523 10 11 10 C 10.4477 10 10 10.4477 10 11 C 10 11.5523 10.4477 12 11 12 C 11.5523 12 12 11.5523 12 11 Z M 14 11 C 14 12.6569 12.6569 14 11 14 C 9.34315 14 8 12.6569 8 11 C 8 9.34315 9.34315 8 11 8 C 12.6569 8 14 9.34315 14 11 Z" stroke-linecap="round" /></g></g></g></svg>