<svg xmlns="http://www.w3.org/2000/svg" width="16" height="16"  viewBox="0 0 16 16"><g transform="matrix(1 0 0 1 0 0)"  ><g style=""   ><g transform="matrix(0.67 0 0 0.67 11 13.33)"  ><path style="stroke: none; stroke-width: 1; stroke-dasharray: none; stroke-linecap: butt; stroke-dashoffset: 0; stroke-linejoin: miter; stroke-miterlimit: 4; fill: rgb(86,93,109); fill-rule: nonzero; opacity: 1;"  transform=" translate(-16.5, -20)" d="M 21 19 C 21.5523 19 22 19.4477 22 20 C 22 20.5523 21.5523 21 21 21 L 12 21 C 11.4477 21 11 20.5523 11 20 C 11 19.4477 11.4477 19 12 19 L 21 19 Z" stroke-linecap="round" /></g><g transform="matrix(0.67 0 0 0.67 7.67 7.67)"  ><path style="stroke: none; stroke-width: 1; stroke-dasharray: none; stroke-linecap: butt; stroke-dashoffset: 0; stroke-linejoin: miter; stroke-miterlimit: 4; fill: rgb(86,93,109); fill-rule: nonzero; opacity: 1;"  transform=" translate(-11.5, -11.5)" d="M 19 5.12331 C 19 4.82561 18.8814 4.53991 18.6709 4.32937 C 18.4868 4.14522 18.2452 4.03172 17.9883 4.00613 L 17.877 4.00027 C 17.6164 4.00027 17.3648 4.09045 17.1651 4.25417 L 17.083 4.32937 L 5.07228 16.3401 C 4.983 16.4293 4.91127 16.5346 4.86134 16.6497 L 4.81935 16.7669 L 4.23536 18.763 L 6.23243 18.1809 L 6.23341 18.1809 L 6.35157 18.138 C 6.46661 18.0881 6.57195 18.0172 6.66115 17.928 L 18.6709 5.91726 L 18.7451 5.83425 C 18.9088 5.63455 18.9999 5.38374 19 5.12331 Z M 21 5.12331 C 20.9999 5.89977 20.7102 6.64622 20.1914 7.21902 L 20.085 7.33132 L 8.07521 19.3421 C 7.76288 19.6544 7.38572 19.8929 6.97169 20.0423 L 6.79298 20.1009 L 3.92091 20.9387 C 3.66285 21.014 3.38932 21.0191 3.12892 20.9524 C 2.8685 20.8857 2.63057 20.7499 2.44044 20.5598 C 2.25032 20.3697 2.11461 20.1318 2.04786 19.8714 C 1.98117 19.611 1.98539 19.3374 2.06056 19.0794 L 2.89943 16.2073 L 2.89943 16.2063 L 2.95802 16.0276 C 3.10752 15.6142 3.34618 15.2379 3.65822 14.926 L 15.669 2.91531 L 15.7813 2.80788 C 16.3541 2.28932 17.1006 2.00027 17.877 2.00027 L 18.0322 2.00417 C 18.8039 2.04256 19.536 2.36638 20.085 2.91531 C 20.6705 3.50092 21 4.29518 21 5.12331 Z" stroke-linecap="round" /></g></g></g></svg>