<svg xmlns="http://www.w3.org/2000/svg" viewBox="0 0 656 396"><g transform="matrix(1 0 0 1 0 0)"  ><g style=""   ><g transform="matrix(1 0 0 1 328 198)"  ><g style=""   ><g transform="matrix(1 0 0 1 25 132)"  ><line style="stroke: rgb(222,225,230); stroke-width: 1; stroke-dasharray: 3 3; stroke-linecap: butt; stroke-dashoffset: 0; stroke-linejoin: miter; stroke-miterlimit: 4; fill: none; fill-rule: nonzero; opacity: 1;"  x1="-293" y1="0" x2="293" y2="0" /></g><g transform="matrix(1 0 0 1 25 52)"  ><line style="stroke: rgb(222,225,230); stroke-width: 1; stroke-dasharray: 3 3; stroke-linecap: butt; stroke-dashoffset: 0; stroke-linejoin: miter; stroke-miterlimit: 4; fill: none; fill-rule: nonzero; opacity: 1;"  x1="-293" y1="0" x2="293" y2="0" /></g><g transform="matrix(1 0 0 1 25 -28)"  ><line style="stroke: rgb(222,225,230); stroke-width: 1; stroke-dasharray: 3 3; stroke-linecap: butt; stroke-dashoffset: 0; stroke-linejoin: miter; stroke-miterlimit: 4; fill: none; fill-rule: nonzero; opacity: 1;"  x1="-293" y1="0" x2="293" y2="0" /></g><g transform="matrix(1 0 0 1 25 -108)"  ><line style="stroke: rgb(222,225,230); stroke-width: 1; stroke-dasharray: 3 3; stroke-linecap: butt; stroke-dashoffset: 0; stroke-linejoin: miter; stroke-miterlimit: 4; fill: none; fill-rule: nonzero; opacity: 1;"  x1="-293" y1="0" x2="293" y2="0" /></g><g transform="matrix(1 0 0 1 25 -188)"  ><line style="stroke: rgb(222,225,230); stroke-width: 1; stroke-dasharray: 3 3; stroke-linecap: butt; stroke-dashoffset: 0; stroke-linejoin: miter; stroke-miterlimit: 4; fill: none; fill-rule: nonzero; opacity: 1;"  x1="-293" y1="0" x2="293" y2="0" /></g><g transform="matrix(1 0 0 1 -268 136.14)" style=""  ><text xml:space="preserve" font-family="Manrope" font-size="12" font-style="normal" font-weight="400" style="stroke: none; stroke-width: 1; stroke-dasharray: none; stroke-linecap: butt; stroke-dashoffset: 0; stroke-linejoin: miter; stroke-miterlimit: 4; fill: rgb(86,93,109); fill-rule: nonzero; opacity: 1; white-space: pre;" ></text></g><g transform="matrix(1 0 0 1 -150.8 136.14)" style=""  ><text xml:space="preserve" font-family="Manrope" font-size="12" font-style="normal" font-weight="400" style="stroke: none; stroke-width: 1; stroke-dasharray: none; stroke-linecap: butt; stroke-dashoffset: 0; stroke-linejoin: miter; stroke-miterlimit: 4; fill: rgb(86,93,109); fill-rule: nonzero; opacity: 1; white-space: pre;" ></text></g><g transform="matrix(1 0 0 1 -33.6 136.14)" style=""  ><text xml:space="preserve" font-family="Manrope" font-size="12" font-style="normal" font-weight="400" style="stroke: none; stroke-width: 1; stroke-dasharray: none; stroke-linecap: butt; stroke-dashoffset: 0; stroke-linejoin: miter; stroke-miterlimit: 4; fill: rgb(86,93,109); fill-rule: nonzero; opacity: 1; white-space: pre;" ></text></g><g transform="matrix(1 0 0 1 83.6 136.14)" style=""  ><text xml:space="preserve" font-family="Manrope" font-size="12" font-style="normal" font-weight="400" style="stroke: none; stroke-width: 1; stroke-dasharray: none; stroke-linecap: butt; stroke-dashoffset: 0; stroke-linejoin: miter; stroke-miterlimit: 4; fill: rgb(86,93,109); fill-rule: nonzero; opacity: 1; white-space: pre;" ></text></g><g transform="matrix(1 0 0 1 200.8 136.14)" style=""  ><text xml:space="preserve" font-family="Manrope" font-size="12" font-style="normal" font-weight="400" style="stroke: none; stroke-width: 1; stroke-dasharray: none; stroke-linecap: butt; stroke-dashoffset: 0; stroke-linejoin: miter; stroke-miterlimit: 4; fill: rgb(86,93,109); fill-rule: nonzero; opacity: 1; white-space: pre;" ></text></g><g transform="matrix(1 0 0 1 318 136.14)" style=""  ><text xml:space="preserve" font-family="Manrope" font-size="12" font-style="normal" font-weight="400" style="stroke: none; stroke-width: 1; stroke-dasharray: none; stroke-linecap: butt; stroke-dashoffset: 0; stroke-linejoin: miter; stroke-miterlimit: 4; fill: rgb(86,93,109); fill-rule: nonzero; opacity: 1; white-space: pre;" ></text></g><g transform="matrix(1 0 0 1 -277 128.14)" style=""  ><text xml:space="preserve" font-family="Manrope" font-size="12" font-style="normal" font-weight="400" style="stroke: none; stroke-width: 1; stroke-dasharray: none; stroke-linecap: butt; stroke-dashoffset: 0; stroke-linejoin: miter; stroke-miterlimit: 4; fill: rgb(86,93,109); fill-rule: nonzero; opacity: 1; white-space: pre;" ></text></g><g transform="matrix(1 0 0 1 -277 48.14)" style=""  ><text xml:space="preserve" font-family="Manrope" font-size="12" font-style="normal" font-weight="400" style="stroke: none; stroke-width: 1; stroke-dasharray: none; stroke-linecap: butt; stroke-dashoffset: 0; stroke-linejoin: miter; stroke-miterlimit: 4; fill: rgb(86,93,109); fill-rule: nonzero; opacity: 1; white-space: pre;" ></text></g><g transform="matrix(1 0 0 1 -277 -31.86)" style=""  ><text xml:space="preserve" font-family="Manrope" font-size="12" font-style="normal" font-weight="400" style="stroke: none; stroke-width: 1; stroke-dasharray: none; stroke-linecap: butt; stroke-dashoffset: 0; stroke-linejoin: miter; stroke-miterlimit: 4; fill: rgb(86,93,109); fill-rule: nonzero; opacity: 1; white-space: pre;" ></text></g><g transform="matrix(1 0 0 1 -277 -111.86)" style=""  ><text xml:space="preserve" font-family="Manrope" font-size="12" font-style="normal" font-weight="400" style="stroke: none; stroke-width: 1; stroke-dasharray: none; stroke-linecap: butt; stroke-dashoffset: 0; stroke-linejoin: miter; stroke-miterlimit: 4; fill: rgb(86,93,109); fill-rule: nonzero; opacity: 1; white-space: pre;" ></text></g><g transform="matrix(1 0 0 1 -277 -191.86)" style=""  ><text xml:space="preserve" font-family="Manrope" font-size="12" font-style="normal" font-weight="400" style="stroke: none; stroke-width: 1; stroke-dasharray: none; stroke-linecap: butt; stroke-dashoffset: 0; stroke-linejoin: miter; stroke-miterlimit: 4; fill: rgb(86,93,109); fill-rule: nonzero; opacity: 1; white-space: pre;" ></text></g><g transform="matrix(1 0 0 1 25 32)"  ><linearGradient id="SVGID_colorL1_5130" gradientUnits="objectBoundingBox" gradientTransform="matrix(1 0 0 1 0 0)"  x1="0" y1="0" x2="0" y2="1"><stop offset="5%" style="stop-color:rgb(61,138,245);stop-opacity: 0.3"/><stop offset="95%" style="stop-color:rgb(61,138,245);stop-opacity: 0"/></linearGradient><path style="stroke: none; stroke-width: 3; stroke-dasharray: none; stroke-linecap: butt; stroke-dashoffset: 0; stroke-linejoin: miter; stroke-miterlimit: 4; fill: url(#SVGID_colorL1_5130); fill-rule: nonzero; opacity: 1;"  transform=" translate(-353, -230)" d="M 60 130 C 99.067 143.333 138.133 156.667 177.2 170 C 216.267 183.333 255.333 196.667 294.4 210 C 333.467 223.333 372.533 240 411.6 250 C 450.667 260 489.733 263.333 528.8 270 C 567.867 276.667 606.933 283.333 646 290 L 646 330 C 606.933 330 567.867 330 528.8 330 C 489.733 330 450.667 330 411.6 330 C 372.533 330 333.467 330 294.4 330 C 255.333 330 216.267 330 177.2 330 C 138.133 330 99.067 330 60 330 Z" stroke-linecap="round" /></g><g transform="matrix(1 0 0 1 25 12)"  ><path style="stroke: rgb(61,138,245); stroke-width: 3; stroke-dasharray: none; stroke-linecap: butt; stroke-dashoffset: 0; stroke-linejoin: miter; stroke-miterlimit: 4; fill: none; fill-rule: nonzero; opacity: 1;"  transform=" translate(-353, -210)" d="M 60 130 C 99.067 143.333 138.133 156.667 177.2 170 C 216.267 183.333 255.333 196.667 294.4 210 C 333.467 223.333 372.533 240 411.6 250 C 450.667 260 489.733 263.333 528.8 270 C 567.867 276.667 606.933 283.333 646 290" stroke-linecap="round" /></g><g transform="matrix(1 0 0 1 25 12)"  ><linearGradient id="SVGID_colorL2_5131" gradientUnits="objectBoundingBox" gradientTransform="matrix(1 0 0 1 0 0)"  x1="0" y1="0" x2="0" y2="1"><stop offset="5%" style="stop-color:rgb(99,233,143);stop-opacity: 0.3"/><stop offset="95%" style="stop-color:rgb(99,233,143);stop-opacity: 0"/></linearGradient><path style="stroke: none; stroke-width: 3; stroke-dasharray: none; stroke-linecap: butt; stroke-dashoffset: 0; stroke-linejoin: miter; stroke-miterlimit: 4; fill: url(#SVGID_colorL2_5131); fill-rule: nonzero; opacity: 1;"  transform=" translate(-353, -210)" d="M 60 230 C 99.067 208.333 138.133 186.667 177.2 170 C 216.267 153.333 255.333 143.333 294.4 130 C 333.467 116.667 372.533 90 411.6 90 C 450.667 90 489.733 133.333 528.8 150 C 567.867 166.667 606.933 178.333 646 190 L 646 330 C 606.933 330 567.867 330 528.8 330 C 489.733 330 450.667 330 411.6 330 C 372.533 330 333.467 330 294.4 330 C 255.333 330 216.267 330 177.2 330 C 138.133 330 99.067 330 60 330 Z" stroke-linecap="round" /></g><g transform="matrix(1 0 0 1 25 -38)"  ><path style="stroke: rgb(99,233,143); stroke-width: 3; stroke-dasharray: none; stroke-linecap: butt; stroke-dashoffset: 0; stroke-linejoin: miter; stroke-miterlimit: 4; fill: none; fill-rule: nonzero; opacity: 1;"  transform=" translate(-353, -160)" d="M 60 230 C 99.067 208.333 138.133 186.667 177.2 170 C 216.267 153.333 255.333 143.333 294.4 130 C 333.467 116.667 372.533 90 411.6 90 C 450.667 90 489.733 133.333 528.8 150 C 567.867 166.667 606.933 178.333 646 190" stroke-linecap="round" /></g><g transform="matrix(1 0 0 1 25 -18)"  ><linearGradient id="SVGID_colorL3_5132" gradientUnits="objectBoundingBox" gradientTransform="matrix(1 0 0 1 0 0)"  x1="0" y1="0" x2="0" y2="1"><stop offset="5%" style="stop-color:rgb(242,191,140);stop-opacity: 0.3"/><stop offset="95%" style="stop-color:rgb(242,191,140);stop-opacity: 0"/></linearGradient><path style="stroke: none; stroke-width: 3; stroke-dasharray: none; stroke-linecap: butt; stroke-dashoffset: 0; stroke-linejoin: miter; stroke-miterlimit: 4; fill: url(#SVGID_colorL3_5132); fill-rule: nonzero; opacity: 1;"  transform=" translate(-353, -180)" d="M 60 290 C 99.067 276.667 138.133 263.333 177.2 250 C 216.267 236.667 255.333 223.333 294.4 210 C 333.467 196.667 372.533 190 411.6 170 C 450.667 150 489.733 113.333 528.8 90 C 567.867 66.667 606.933 48.333 646 30 L 646 330 C 606.933 330 567.867 330 528.8 330 C 489.733 330 450.667 330 411.6 330 C 372.533 330 333.467 330 294.4 330 C 255.333 330 216.267 330 177.2 330 C 138.133 330 99.067 330 60 330 Z" stroke-linecap="round" /></g><g transform="matrix(1 0 0 1 25 -38)"  ><path style="stroke: rgb(242,191,140); stroke-width: 3; stroke-dasharray: none; stroke-linecap: butt; stroke-dashoffset: 0; stroke-linejoin: miter; stroke-miterlimit: 4; fill: none; fill-rule: nonzero; opacity: 1;"  transform=" translate(-353, -160)" d="M 60 290 C 99.067 276.667 138.133 263.333 177.2 250 C 216.267 236.667 255.333 223.333 294.4 210 C 333.467 196.667 372.533 190 411.6 170 C 450.667 150 489.733 113.333 528.8 90 C 567.867 66.667 606.933 48.333 646 30" stroke-linecap="round" /></g><g transform="matrix(1 0 0 1 25 32)"  ><linearGradient id="SVGID_colorL4_5133" gradientUnits="objectBoundingBox" gradientTransform="matrix(1 0 0 1 0 0)"  x1="0" y1="0" x2="0" y2="1"><stop offset="5%" style="stop-color:rgb(191,147,236);stop-opacity: 0.3"/><stop offset="95%" style="stop-color:rgb(191,147,236);stop-opacity: 0"/></linearGradient><path style="stroke: none; stroke-width: 3; stroke-dasharray: none; stroke-linecap: butt; stroke-dashoffset: 0; stroke-linejoin: miter; stroke-miterlimit: 4; fill: url(#SVGID_colorL4_5133); fill-rule: nonzero; opacity: 1;"  transform=" translate(-353, -230)" d="M 60 310 C 99.067 303.333 138.133 296.667 177.2 290 C 216.267 283.333 255.333 280 294.4 270 C 333.467 260 372.533 243.333 411.6 230 C 450.667 216.667 489.733 206.667 528.8 190 C 567.867 173.333 606.933 151.667 646 130 L 646 330 C 606.933 330 567.867 330 528.8 330 C 489.733 330 450.667 330 411.6 330 C 372.533 330 333.467 330 294.4 330 C 255.333 330 216.267 330 177.2 330 C 138.133 330 99.067 330 60 330 Z" stroke-linecap="round" /></g><g transform="matrix(1 0 0 1 25 22)"  ><path style="stroke: rgb(191,147,236); stroke-width: 3; stroke-dasharray: none; stroke-linecap: butt; stroke-dashoffset: 0; stroke-linejoin: miter; stroke-miterlimit: 4; fill: none; fill-rule: nonzero; opacity: 1;"  transform=" translate(-353, -220)" d="M 60 310 C 99.067 303.333 138.133 296.667 177.2 290 C 216.267 283.333 255.333 280 294.4 270 C 333.467 260 372.533 243.333 411.6 230 C 450.667 216.667 489.733 206.667 528.8 190 C 567.867 173.333 606.933 151.667 646 130" stroke-linecap="round" /></g></g></g></g></g></svg>