<svg xmlns="http://www.w3.org/2000/svg" width="26" height="26"  viewBox="0 0 26 26"><g transform="matrix(1 0 0 1 0 0)"  ><g style=""   ><g transform="matrix(1.08 0 0 1.08 13.01 10.83)"  ><path style="stroke: none; stroke-width: 1; stroke-dasharray: none; stroke-linecap: butt; stroke-dashoffset: 0; stroke-linejoin: miter; stroke-miterlimit: 4; fill: rgb(255,255,255); fill-rule: nonzero; opacity: 1;"  transform=" translate(-12.01, -10)" d="M 12.0002 3.99963 C 12.4297 3.99966 12.8545 4.09189 13.2453 4.27014 L 13.2443 4.27112 L 21.8156 8.17346 L 21.8147 8.17444 C 22.1632 8.32627 22.4622 8.57366 22.675 8.88928 C 22.8936 9.21358 23.0117 9.59491 23.0158 9.98596 C 23.0199 10.3772 22.9094 10.7615 22.6975 11.0905 C 22.4873 11.4166 22.1863 11.6734 21.8322 11.8317 L 21.8332 11.8326 L 13.2434 15.7311 C 12.9018 15.8866 12.5342 15.9757 12.1604 15.9957 L 12.0002 16.0006 C 11.6244 16.0006 11.2524 15.9296 10.9035 15.7926 L 10.7551 15.7301 L 2.18477 11.8219 L 2.18477 11.8209 C 1.83498 11.6644 1.53717 11.4114 1.32735 11.0905 C 1.11465 10.7651 1.00117 10.3844 1.00117 9.99573 C 1.00123 9.60717 1.11476 9.22723 1.32735 8.90198 C 1.53745 8.58058 1.8353 8.32601 2.18575 8.16956 L 10.7551 4.27112 L 10.7551 4.27014 C 11.1459 4.09189 11.5706 3.99963 12.0002 3.99963 Z M 3.01485 10.0026 L 11.5852 13.9098 L 11.6848 13.9489 C 11.7863 13.9826 11.8928 14.0006 12.0002 14.0006 L 12.1066 13.9948 C 12.2131 13.9833 12.3174 13.9544 12.4152 13.9098 L 12.4172 13.9098 L 21.007 10.0114 L 21.0168 10.0074 C 21.0068 10.0033 20.9964 9.99828 20.9865 9.99377 L 12.4152 6.09045 L 12.4152 6.08948 C 12.285 6.03008 12.1433 5.99966 12.0002 5.99963 C 11.8929 5.99963 11.7862 6.01673 11.6848 6.05042 L 11.5852 6.08948 L 11.5842 6.09045 L 3.01387 9.98987 L 3.00117 9.99573 L 3.01485 10.0026 Z" stroke-linecap="round" /></g><g transform="matrix(1.08 0 0 1.08 23.83 14.08)"  ><path style="stroke: none; stroke-width: 1; stroke-dasharray: none; stroke-linecap: butt; stroke-dashoffset: 0; stroke-linejoin: miter; stroke-miterlimit: 4; fill: rgb(255,255,255); fill-rule: nonzero; opacity: 1;"  transform=" translate(-22, -13)" d="M 21 16 L 21 10 C 21 9.44772 21.4477 9 22 9 C 22.5523 9 23 9.44772 23 10 L 23 16 C 23 16.5523 22.5523 17 22 17 C 21.4477 17 21 16.5523 21 16 Z" stroke-linecap="round" /></g><g transform="matrix(1.08 0 0 1.08 13 17.06)"  ><path style="stroke: none; stroke-width: 1; stroke-dasharray: none; stroke-linecap: butt; stroke-dashoffset: 0; stroke-linejoin: miter; stroke-miterlimit: 4; fill: rgb(255,255,255); fill-rule: nonzero; opacity: 1;"  transform=" translate(-12, -15.75)" d="M 5 16 L 5 12.5 C 5 11.9477 5.44772 11.5 6 11.5 C 6.55228 11.5 7 11.9477 7 12.5 L 7 16 L 7.01074 16.0967 C 7.06328 16.3502 7.32825 16.7885 8.2041 17.2266 C 9.15862 17.7038 10.5239 18 12 18 L 12.5479 17.9863 C 13.8109 17.9232 14.9607 17.6442 15.7959 17.2266 C 16.7968 16.726 17 16.225 17 16 L 17 12.5 C 17 11.9477 17.4477 11.5 18 11.5 C 18.5523 11.5 19 11.9477 19 12.5 L 19 16 C 19 17.3662 17.9386 18.3911 16.6895 19.0156 C 15.4745 19.623 13.9156 19.9568 12.3193 19.9961 L 12 20 C 10.2936 20 8.60643 19.6635 7.31055 19.0156 C 6.13943 18.4301 5.13377 17.4927 5.0127 16.252 L 5 16 Z" stroke-linecap="round" /></g></g></g></svg>