<svg xmlns="http://www.w3.org/2000/svg" width="32" height="32"  viewBox="0 0 32 32"><g transform="matrix(1 0 0 1 0 0)"  ><g style=""   ><g transform="matrix(1.33 0 0 1.33 16 16)"  ><path style="stroke: none; stroke-width: 1; stroke-dasharray: none; stroke-linecap: butt; stroke-dashoffset: 0; stroke-linejoin: miter; stroke-miterlimit: 4; fill: rgb(242,191,140); fill-rule: nonzero; opacity: 1;"  transform=" translate(-12, -12)" d="M 21 11 C 21 8.9143 20.0806 6.88931 18.4023 5.37891 C 16.7206 3.86542 14.4189 3 12 3 C 9.61305 3 7.32357 3.94791 5.63574 5.63574 C 3.94791 7.32357 3 9.61305 3 12 C 3 14.3869 3.94791 16.6764 5.63574 18.3643 C 7.32357 20.0521 9.61305 21 12 21 L 12.25 21 C 12.3893 21 12.5261 20.9609 12.6445 20.8877 C 12.7629 20.8145 12.8587 20.7094 12.9209 20.585 C 12.983 20.4605 13.0096 20.3212 12.9971 20.1826 C 12.9877 20.0787 12.9563 19.9784 12.9062 19.8877 L 12.8496 19.7998 L 12.5498 19.4004 C 12.2434 18.9918 12.0566 18.5057 12.0107 17.9971 C 11.9649 17.4886 12.0618 16.9772 12.29 16.5205 C 12.5184 16.0637 12.8703 15.6796 13.3047 15.4111 C 13.7391 15.1427 14.2393 15 14.75 15 L 17 15 L 17.1982 14.9951 C 18.1869 14.9461 19.1248 14.5314 19.8281 13.8281 C 20.5783 13.078 21 12.0609 21 11 Z M 23 11 C 23 12.5913 22.3674 14.117 21.2422 15.2422 C 20.1874 16.297 18.7807 16.9185 17.2979 16.9922 L 17 17 L 14.75 17 C 14.6107 17 14.4739 17.0391 14.3555 17.1123 C 14.2371 17.1855 14.1413 17.2906 14.0791 17.415 C 14.017 17.5395 13.9904 17.6788 14.0029 17.8174 C 14.0154 17.9561 14.0668 18.0888 14.1504 18.2002 L 14.4502 18.5996 L 14.5596 18.7568 C 14.8011 19.1304 14.9491 19.558 14.9893 20.0029 C 15.0351 20.5114 14.9382 21.0228 14.71 21.4795 C 14.4816 21.9363 14.1297 22.3204 13.6953 22.5889 C 13.2609 22.8573 12.7607 23 12.25 23 L 12 23 C 9.08262 23 6.28458 21.8412 4.22168 19.7783 C 2.15878 17.7154 1 14.9174 1 12 C 1 9.08262 2.15878 6.28458 4.22168 4.22168 C 6.28458 2.15878 9.08262 1 12 1 C 14.8854 1 17.6712 2.03046 19.7402 3.89258 C 21.8127 5.75783 23 8.31181 23 11 Z" stroke-linecap="round" /></g><g transform="matrix(1.33 0 0 1.33 18 8.67)"  ><path style="stroke: none; stroke-width: 1; stroke-dasharray: none; stroke-linecap: butt; stroke-dashoffset: 0; stroke-linejoin: miter; stroke-miterlimit: 4; fill: rgb(242,191,140); fill-rule: nonzero; opacity: 1;"  transform=" translate(-13.5, -6.5)" d="M 13.5 7 C 13.7761 7 14 6.77614 14 6.5 C 14 6.22386 13.7761 6 13.5 6 C 13.2239 6 13 6.22386 13 6.5 C 13 6.77614 13.2239 7 13.5 7 Z" stroke-linecap="round" /></g><g transform="matrix(1.33 0 0 1.33 18 8.67)"  ><path style="stroke: none; stroke-width: 1; stroke-dasharray: none; stroke-linecap: butt; stroke-dashoffset: 0; stroke-linejoin: miter; stroke-miterlimit: 4; fill: rgb(242,191,140); fill-rule: nonzero; opacity: 1;"  transform=" translate(-13.5, -6.5)" d="M 13.5 6 C 13.2239 6 13 6.22386 13 6.5 C 13 6.77614 13.2239 7 13.5 7 C 13.7761 7 14 6.77614 14 6.5 C 14 6.22386 13.7761 6 13.5 6 Z M 15 6.5 C 15 7.32843 14.3284 8 13.5 8 C 12.6716 8 12 7.32843 12 6.5 C 12 5.67157 12.6716 5 13.5 5 C 14.3284 5 15 5.67157 15 6.5 Z" stroke-linecap="round" /></g><g transform="matrix(1.33 0 0 1.33 23.33 14)"  ><path style="stroke: none; stroke-width: 1; stroke-dasharray: none; stroke-linecap: butt; stroke-dashoffset: 0; stroke-linejoin: miter; stroke-miterlimit: 4; fill: rgb(242,191,140); fill-rule: nonzero; opacity: 1;"  transform=" translate(-17.5, -10.5)" d="M 17.5 11 C 17.7761 11 18 10.7761 18 10.5 C 18 10.2239 17.7761 10 17.5 10 C 17.2239 10 17 10.2239 17 10.5 C 17 10.7761 17.2239 11 17.5 11 Z" stroke-linecap="round" /></g><g transform="matrix(1.33 0 0 1.33 23.33 14)"  ><path style="stroke: none; stroke-width: 1; stroke-dasharray: none; stroke-linecap: butt; stroke-dashoffset: 0; stroke-linejoin: miter; stroke-miterlimit: 4; fill: rgb(242,191,140); fill-rule: nonzero; opacity: 1;"  transform=" translate(-17.5, -10.5)" d="M 17.5 10 C 17.2239 10 17 10.2239 17 10.5 C 17 10.7761 17.2239 11 17.5 11 C 17.7761 11 18 10.7761 18 10.5 C 18 10.2239 17.7761 10 17.5 10 Z M 19 10.5 C 19 11.3284 18.3284 12 17.5 12 C 16.6716 12 16 11.3284 16 10.5 C 16 9.67157 16.6716 9 17.5 9 C 18.3284 9 19 9.67157 19 10.5 Z" stroke-linecap="round" /></g><g transform="matrix(1.33 0 0 1.33 8.67 16.67)"  ><path style="stroke: none; stroke-width: 1; stroke-dasharray: none; stroke-linecap: butt; stroke-dashoffset: 0; stroke-linejoin: miter; stroke-miterlimit: 4; fill: rgb(242,191,140); fill-rule: nonzero; opacity: 1;"  transform=" translate(-6.5, -12.5)" d="M 6.5 13 C 6.77614 13 7 12.7761 7 12.5 C 7 12.2239 6.77614 12 6.5 12 C 6.22386 12 6 12.2239 6 12.5 C 6 12.7761 6.22386 13 6.5 13 Z" stroke-linecap="round" /></g><g transform="matrix(1.33 0 0 1.33 8.67 16.67)"  ><path style="stroke: none; stroke-width: 1; stroke-dasharray: none; stroke-linecap: butt; stroke-dashoffset: 0; stroke-linejoin: miter; stroke-miterlimit: 4; fill: rgb(242,191,140); fill-rule: nonzero; opacity: 1;"  transform=" translate(-6.5, -12.5)" d="M 6.5 12 C 6.22386 12 6 12.2239 6 12.5 C 6 12.7761 6.22386 13 6.5 13 C 6.77614 13 7 12.7761 7 12.5 C 7 12.2239 6.77614 12 6.5 12 Z M 8 12.5 C 8 13.3284 7.32843 14 6.5 14 C 5.67157 14 5 13.3284 5 12.5 C 5 11.6716 5.67157 11 6.5 11 C 7.32843 11 8 11.6716 8 12.5 Z" stroke-linecap="round" /></g><g transform="matrix(1.33 0 0 1.33 11.33 10)"  ><path style="stroke: none; stroke-width: 1; stroke-dasharray: none; stroke-linecap: butt; stroke-dashoffset: 0; stroke-linejoin: miter; stroke-miterlimit: 4; fill: rgb(242,191,140); fill-rule: nonzero; opacity: 1;"  transform=" translate(-8.5, -7.5)" d="M 8.5 8 C 8.77614 8 9 7.77614 9 7.5 C 9 7.22386 8.77614 7 8.5 7 C 8.22386 7 8 7.22386 8 7.5 C 8 7.77614 8.22386 8 8.5 8 Z" stroke-linecap="round" /></g><g transform="matrix(1.33 0 0 1.33 11.33 10)"  ><path style="stroke: none; stroke-width: 1; stroke-dasharray: none; stroke-linecap: butt; stroke-dashoffset: 0; stroke-linejoin: miter; stroke-miterlimit: 4; fill: rgb(242,191,140); fill-rule: nonzero; opacity: 1;"  transform=" translate(-8.5, -7.5)" d="M 8.5 7 C 8.22386 7 8 7.22386 8 7.5 C 8 7.77614 8.22386 8 8.5 8 C 8.77614 8 9 7.77614 9 7.5 C 9 7.22386 8.77614 7 8.5 7 Z M 10 7.5 C 10 8.32843 9.32843 9 8.5 9 C 7.67157 9 7 8.32843 7 7.5 C 7 6.67157 7.67157 6 8.5 6 C 9.32843 6 10 6.67157 10 7.5 Z" stroke-linecap="round" /></g></g></g></svg>