<svg xmlns="http://www.w3.org/2000/svg" viewBox="0 0 450 300"><g transform="matrix(1 0 0 1 0 0)"  ><g style=""   ><g transform="matrix(1 0 0 1 225 150)"  ><g style=""   ><g transform="matrix(1 0 0 1 0 -58)"  ><line style="stroke: rgb(86,93,109); stroke-opacity: 0.2; stroke-width: 1; stroke-dasharray: none; stroke-linecap: butt; stroke-dashoffset: 0; stroke-linejoin: miter; stroke-miterlimit: 4; fill: rgb(0,0,0); fill-rule: nonzero; opacity: 1;"  x1="0" y1="58" x2="0" y2="-58" /></g><g transform="matrix(1 0 0 1 50.23 -29)"  ><line style="stroke: rgb(86,93,109); stroke-opacity: 0.2; stroke-width: 1; stroke-dasharray: none; stroke-linecap: butt; stroke-dashoffset: 0; stroke-linejoin: miter; stroke-miterlimit: 4; fill: rgb(0,0,0); fill-rule: nonzero; opacity: 1;"  x1="-50.22947341949745" y1="29" x2="50.22947341949745" y2="-29" /></g><g transform="matrix(1 0 0 1 50.23 29)"  ><line style="stroke: rgb(86,93,109); stroke-opacity: 0.2; stroke-width: 1; stroke-dasharray: none; stroke-linecap: butt; stroke-dashoffset: 0; stroke-linejoin: miter; stroke-miterlimit: 4; fill: rgb(0,0,0); fill-rule: nonzero; opacity: 1;"  x1="-50.22947341949745" y1="-29" x2="50.22947341949745" y2="29" /></g><g transform="matrix(1 0 0 1 0 58)"  ><line style="stroke: rgb(86,93,109); stroke-opacity: 0.2; stroke-width: 1; stroke-dasharray: none; stroke-linecap: butt; stroke-dashoffset: 0; stroke-linejoin: miter; stroke-miterlimit: 4; fill: rgb(0,0,0); fill-rule: nonzero; opacity: 1;"  x1="0" y1="-58" x2="0" y2="58" /></g><g transform="matrix(1 0 0 1 -50.23 29)"  ><line style="stroke: rgb(86,93,109); stroke-opacity: 0.2; stroke-width: 1; stroke-dasharray: none; stroke-linecap: butt; stroke-dashoffset: 0; stroke-linejoin: miter; stroke-miterlimit: 4; fill: rgb(0,0,0); fill-rule: nonzero; opacity: 1;"  x1="50.229473419497445" y1="-29" x2="-50.229473419497445" y2="29" /></g><g transform="matrix(1 0 0 1 -50.23 -29)"  ><line style="stroke: rgb(86,93,109); stroke-opacity: 0.2; stroke-width: 1; stroke-dasharray: none; stroke-linecap: butt; stroke-dashoffset: 0; stroke-linejoin: miter; stroke-miterlimit: 4; fill: rgb(0,0,0); fill-rule: nonzero; opacity: 1;"  x1="50.22947341949744" y1="29.000000000000007" x2="-50.22947341949744" y2="-29.000000000000007" /></g><g transform="matrix(1 0 0 1 0 0)"  ><path style="stroke: rgb(86,93,109); stroke-opacity: 0.2; stroke-width: 1; stroke-dasharray: none; stroke-linecap: butt; stroke-dashoffset: 0; stroke-linejoin: miter; stroke-miterlimit: 4; fill: none; fill-rule: nonzero; opacity: 1;"  transform=" translate(-225, -150)" d="M 225 150 L 225 150 L 225 150 L 225 150 L 225 150 L 225 150 Z" stroke-linecap="round" /></g><g transform="matrix(1 0 0 1 0 0)"  ><path style="stroke: rgb(86,93,109); stroke-opacity: 0.2; stroke-width: 1; stroke-dasharray: none; stroke-linecap: butt; stroke-dashoffset: 0; stroke-linejoin: miter; stroke-miterlimit: 4; fill: none; fill-rule: nonzero; opacity: 1;"  transform=" translate(-225, -150)" d="M 225 121 L 250.1147367097487 135.5 L 250.1147367097487 164.5 L 225 179 L 199.8852632902513 164.5 L 199.8852632902513 135.5 Z" stroke-linecap="round" /></g><g transform="matrix(1 0 0 1 0 0)"  ><path style="stroke: rgb(86,93,109); stroke-opacity: 0.2; stroke-width: 1; stroke-dasharray: none; stroke-linecap: butt; stroke-dashoffset: 0; stroke-linejoin: miter; stroke-miterlimit: 4; fill: none; fill-rule: nonzero; opacity: 1;"  transform=" translate(-225, -150)" d="M 225 92 L 275.2294734194974 121 L 275.2294734194974 179 L 225 208 L 174.77052658050255 179 L 174.77052658050258 121 Z" stroke-linecap="round" /></g><g transform="matrix(1 0 0 1 0 0)"  ><path style="stroke: rgb(86,93,109); stroke-opacity: 0.2; stroke-width: 1; stroke-dasharray: none; stroke-linecap: butt; stroke-dashoffset: 0; stroke-linejoin: miter; stroke-miterlimit: 4; fill: none; fill-rule: nonzero; opacity: 1;"  transform=" translate(-225, -150)" d="M 225 63 L 300.34421012924616 106.5 L 300.34421012924616 193.5 L 225 237 L 149.65578987075384 193.5 L 149.65578987075384 106.5 Z" stroke-linecap="round" /></g><g transform="matrix(1 0 0 1 0 0)"  ><path style="stroke: rgb(86,93,109); stroke-opacity: 0.2; stroke-width: 1; stroke-dasharray: none; stroke-linecap: butt; stroke-dashoffset: 0; stroke-linejoin: miter; stroke-miterlimit: 4; fill: none; fill-rule: nonzero; opacity: 1;"  transform=" translate(-225, -150)" d="M 225 34 L 325.4589468389949 92 L 325.4589468389949 208 L 225 266 L 124.54105316100511 208 L 124.54105316100512 91.99999999999999 Z" stroke-linecap="round" /></g><g transform="matrix(1 0 0 1 0 0)"  ><path style="stroke: none; stroke-width: 1; stroke-dasharray: none; stroke-linecap: butt; stroke-dashoffset: 0; stroke-linejoin: miter; stroke-miterlimit: 4; fill: none; fill-rule: nonzero; opacity: 1;"  transform=" translate(-225, -150)" d="M 225 34 L 325.4589468389949 92 L 325.4589468389949 208 L 225 266 L 124.54105316100511 208 L 124.54105316100512 91.99999999999999 L 225 34 Z" stroke-linecap="round" /></g><g transform="matrix(1 0 0 1 0 -120)"  ><line style="stroke: none; stroke-width: 1; stroke-dasharray: none; stroke-linecap: butt; stroke-dashoffset: 0; stroke-linejoin: miter; stroke-miterlimit: 4; fill: none; fill-rule: nonzero; opacity: 1;"  x1="0" y1="4" x2="0" y2="-4" /></g><g transform="matrix(1 0 0 1 0 -127.22)" style=""  ><text xml:space="preserve" font-family="Manrope" font-size="10" font-style="normal" font-weight="500" style="stroke: none; stroke-width: 1; stroke-dasharray: none; stroke-linecap: butt; stroke-dashoffset: 0; stroke-linejoin: miter; stroke-miterlimit: 4; fill: rgb(23,26,31); fill-rule: nonzero; opacity: 1; white-space: pre;" ></text></g><g transform="matrix(1 0 0 1 103.92 -60)"  ><line style="stroke: none; stroke-width: 1; stroke-dasharray: none; stroke-linecap: butt; stroke-dashoffset: 0; stroke-linejoin: miter; stroke-miterlimit: 4; fill: none; fill-rule: nonzero; opacity: 1;"  x1="-3.464101615137764" y1="2" x2="3.464101615137764" y2="-2" /></g><g transform="matrix(1 0 0 1 108.39 -65.22)" style=""  ><text xml:space="preserve" font-family="Manrope" font-size="10" font-style="normal" font-weight="500" style="stroke: none; stroke-width: 1; stroke-dasharray: none; stroke-linecap: butt; stroke-dashoffset: 0; stroke-linejoin: miter; stroke-miterlimit: 4; fill: rgb(23,26,31); fill-rule: nonzero; opacity: 1; white-space: pre;" ></text></g><g transform="matrix(1 0 0 1 103.92 60)"  ><line style="stroke: none; stroke-width: 1; stroke-dasharray: none; stroke-linecap: butt; stroke-dashoffset: 0; stroke-linejoin: miter; stroke-miterlimit: 4; fill: none; fill-rule: nonzero; opacity: 1;"  x1="-3.464101615137764" y1="-2" x2="3.464101615137764" y2="2" /></g><g transform="matrix(1 0 0 1 108.39 58.78)" style=""  ><text xml:space="preserve" font-family="Manrope" font-size="10" font-style="normal" font-weight="500" style="stroke: none; stroke-width: 1; stroke-dasharray: none; stroke-linecap: butt; stroke-dashoffset: 0; stroke-linejoin: miter; stroke-miterlimit: 4; fill: rgb(23,26,31); fill-rule: nonzero; opacity: 1; white-space: pre;" ></text></g><g transform="matrix(1 0 0 1 0 120)"  ><line style="stroke: none; stroke-width: 1; stroke-dasharray: none; stroke-linecap: butt; stroke-dashoffset: 0; stroke-linejoin: miter; stroke-miterlimit: 4; fill: none; fill-rule: nonzero; opacity: 1;"  x1="0" y1="-4" x2="0" y2="4" /></g><g transform="matrix(1 0 0 1 0 120.78)" style=""  ><text xml:space="preserve" font-family="Manrope" font-size="10" font-style="normal" font-weight="500" style="stroke: none; stroke-width: 1; stroke-dasharray: none; stroke-linecap: butt; stroke-dashoffset: 0; stroke-linejoin: miter; stroke-miterlimit: 4; fill: rgb(23,26,31); fill-rule: nonzero; opacity: 1; white-space: pre;" ></text></g><g transform="matrix(1 0 0 1 -103.92 60)"  ><line style="stroke: none; stroke-width: 1; stroke-dasharray: none; stroke-linecap: butt; stroke-dashoffset: 0; stroke-linejoin: miter; stroke-miterlimit: 4; fill: none; fill-rule: nonzero; opacity: 1;"  x1="3.464101615137757" y1="-2" x2="-3.464101615137757" y2="2" /></g><g transform="matrix(1 0 0 1 -108.39 58.78)" style=""  ><text xml:space="preserve" font-family="Manrope" font-size="10" font-style="normal" font-weight="500" style="stroke: none; stroke-width: 1; stroke-dasharray: none; stroke-linecap: butt; stroke-dashoffset: 0; stroke-linejoin: miter; stroke-miterlimit: 4; fill: rgb(23,26,31); fill-rule: nonzero; opacity: 1; white-space: pre;" ></text></g><g transform="matrix(1 0 0 1 -103.92 -60)"  ><line style="stroke: none; stroke-width: 1; stroke-dasharray: none; stroke-linecap: butt; stroke-dashoffset: 0; stroke-linejoin: miter; stroke-miterlimit: 4; fill: none; fill-rule: nonzero; opacity: 1;"  x1="3.464101615137757" y1="2" x2="-3.464101615137757" y2="-2" /></g><g transform="matrix(1 0 0 1 -108.39 -65.22)" style=""  ><text xml:space="preserve" font-family="Manrope" font-size="10" font-style="normal" font-weight="500" style="stroke: none; stroke-width: 1; stroke-dasharray: none; stroke-linecap: butt; stroke-dashoffset: 0; stroke-linejoin: miter; stroke-miterlimit: 4; fill: rgb(23,26,31); fill-rule: nonzero; opacity: 1; white-space: pre;" ></text></g><g transform="matrix(1 0 0 1 -2.51 -5.8)"  ><path style="stroke: rgb(61,138,245); stroke-width: 1; stroke-dasharray: none; stroke-linecap: butt; stroke-dashoffset: 0; stroke-linejoin: miter; stroke-miterlimit: 4; fill: rgb(61,138,245); fill-opacity: 0.6; fill-rule: nonzero; opacity: 1;"  transform=" translate(-222.49, -144.2)" d="M 225 51.400000000000006 L 295.3212627872964 109.4 L 315.4130521550954 202.2 L 225 237 L 144.63284252880408 196.4 L 129.56400050295488 94.89999999999999 L 225 51.400000000000006 Z" stroke-linecap="round" /></g></g></g></g></g></svg>