<svg xmlns="http://www.w3.org/2000/svg" width="32" height="32"  viewBox="0 0 32 32"><g transform="matrix(1 0 0 1 0 0)"  ><g style=""   ><g transform="matrix(1.33 0 0 1.33 16 23.26)"  ><path style="stroke: none; stroke-width: 1; stroke-dasharray: none; stroke-linecap: butt; stroke-dashoffset: 0; stroke-linejoin: miter; stroke-miterlimit: 4; fill: rgb(255,255,255); fill-rule: nonzero; opacity: 1;"  transform=" translate(-12, -17.44)" d="M 15.302 11.9056 C 15.8118 11.815 16.3002 12.1279 16.4387 12.6156 L 16.4611 12.7152 L 17.9768 21.2406 L 17.9777 21.2494 L 17.9924 21.3626 C 18.0166 21.6274 17.9702 21.8951 17.8566 22.1371 C 17.7269 22.4132 17.516 22.643 17.2522 22.7962 C 16.9879 22.9495 16.6826 23.019 16.3781 22.9945 C 16.0877 22.971 15.8112 22.8629 15.5813 22.6849 L 15.5813 22.6859 L 12.0031 19.9994 L 8.41817 22.6849 C 8.18862 22.8621 7.91289 22.97 7.62325 22.9935 C 7.31914 23.0181 7.01422 22.9491 6.7502 22.7962 C 6.48645 22.6435 6.27576 22.4137 6.14571 22.138 C 6.01564 21.8621 5.97252 21.5523 6.02266 21.2513 L 6.02461 21.2416 L 7.53829 12.7152 L 7.56172 12.6156 C 7.70026 12.1281 8.18775 11.8152 8.69747 11.9056 C 9.24121 12.0022 9.6045 12.5211 9.50801 13.0648 L 8.21504 20.3382 L 10.8059 18.3988 L 10.8068 18.3978 L 10.9397 18.307 C 11.2574 18.1073 11.6257 18.0004 12.0031 18.0003 C 12.3807 18.0003 12.7497 18.1072 13.0676 18.307 L 13.2004 18.3978 L 13.2023 18.3988 L 15.7834 20.3363 L 14.4924 13.0648 L 14.4797 12.9632 C 14.442 12.4579 14.7923 11.9962 15.302 11.9056 Z" stroke-linecap="round" /></g><g transform="matrix(1.33 0 0 1.33 16 10.67)"  ><path style="stroke: none; stroke-width: 1; stroke-dasharray: none; stroke-linecap: butt; stroke-dashoffset: 0; stroke-linejoin: miter; stroke-miterlimit: 4; fill: rgb(255,255,255); fill-rule: nonzero; opacity: 1;"  transform=" translate(-12, -8)" d="M 17 8 C 17 5.23858 14.7614 3 12 3 C 9.23858 3 7 5.23858 7 8 C 7 10.7614 9.23858 13 12 13 C 14.7614 13 17 10.7614 17 8 Z M 19 8 C 19 11.866 15.866 15 12 15 C 8.13401 15 5 11.866 5 8 C 5 4.13401 8.13401 1 12 1 C 15.866 1 19 4.13401 19 8 Z" stroke-linecap="round" /></g></g></g></svg>