<svg xmlns="http://www.w3.org/2000/svg" width="20" height="20"  viewBox="0 0 20 20"><g transform="matrix(1 0 0 1 0 0)"  ><g style=""   ><g transform="matrix(0.83 0 0 0.83 10 15)"  ><path style="stroke: none; stroke-width: 1; stroke-dasharray: none; stroke-linecap: butt; stroke-dashoffset: 0; stroke-linejoin: miter; stroke-miterlimit: 4; fill: rgb(86,93,109); fill-rule: nonzero; opacity: 1;"  transform=" translate(-12, -18)" d="M 17 21 C 17 19.6739 16.4728 18.4025 15.5352 17.4648 C 14.5975 16.5272 13.3261 16 12 16 C 10.6739 16 9.40253 16.5272 8.46484 17.4648 C 7.52716 18.4025 7 19.6739 7 21 C 7 21.5523 6.55228 22 6 22 C 5.44772 22 5 21.5523 5 21 C 5 19.1435 5.73705 17.3626 7.0498 16.0498 C 8.36256 14.737 10.1435 14 12 14 C 13.8565 14 15.6374 14.737 16.9502 16.0498 C 18.263 17.3626 19 19.1435 19 21 C 19 21.5523 18.5523 22 18 22 C 17.4477 22 17 21.5523 17 21 Z" stroke-linecap="round" /></g><g transform="matrix(0.83 0 0 0.83 10 9.17)"  ><path style="stroke: none; stroke-width: 1; stroke-dasharray: none; stroke-linecap: butt; stroke-dashoffset: 0; stroke-linejoin: miter; stroke-miterlimit: 4; fill: rgb(86,93,109); fill-rule: nonzero; opacity: 1;"  transform=" translate(-12, -11)" d="M 15 11 C 15 9.34315 13.6569 8 12 8 C 10.3431 8 9 9.34315 9 11 C 9 12.6569 10.3431 14 12 14 C 13.6569 14 15 12.6569 15 11 Z M 17 11 C 17 13.7614 14.7614 16 12 16 C 9.23858 16 7 13.7614 7 11 C 7 8.23858 9.23858 6 12 6 C 14.7614 6 17 8.23858 17 11 Z" stroke-linecap="round" /></g><g transform="matrix(0.83 0 0 0.83 10 10)"  ><path style="stroke: none; stroke-width: 1; stroke-dasharray: none; stroke-linecap: butt; stroke-dashoffset: 0; stroke-linejoin: miter; stroke-miterlimit: 4; fill: rgb(86,93,109); fill-rule: nonzero; opacity: 1;"  transform=" translate(-12, -12)" d="M 20 5 C 20 4.44772 19.5523 4 19 4 L 5 4 C 4.44772 4 4 4.44772 4 5 L 4 19 C 4 19.5523 4.44772 20 5 20 L 19 20 C 19.5523 20 20 19.5523 20 19 L 20 5 Z M 22 19 C 22 20.6569 20.6569 22 19 22 L 5 22 C 3.34315 22 2 20.6569 2 19 L 2 5 C 2 3.34315 3.34315 2 5 2 L 19 2 C 20.6569 2 22 3.34315 22 5 L 22 19 Z" stroke-linecap="round" /></g></g></g></svg>