<svg xmlns="http://www.w3.org/2000/svg" width="24" height="24"  viewBox="0 0 24 24"><g transform="matrix(1 0 0 1 0 0)"  ><g style=""   ><g transform="matrix(1 0 0 1 6 18)"  ><path style="stroke: none; stroke-width: 1; stroke-dasharray: none; stroke-linecap: butt; stroke-dashoffset: 0; stroke-linejoin: miter; stroke-miterlimit: 4; fill: rgb(61,138,245); fill-rule: nonzero; opacity: 1;"  transform=" translate(-6, -18)" d="M 1 21 L 1 19 C 1 17.6739 1.52716 16.4025 2.46484 15.4648 C 3.40253 14.5272 4.67392 14 6 14 L 10 14 C 10.5523 14 11 14.4477 11 15 C 11 15.5523 10.5523 16 10 16 L 6 16 C 5.20435 16 4.44152 16.3163 3.87891 16.8789 C 3.3163 17.4415 3 18.2044 3 19 L 3 21 C 3 21.5523 2.55228 22 2 22 C 1.44772 22 1 21.5523 1 21 Z" stroke-linecap="round" /></g><g transform="matrix(1 0 0 1 14.77 16.34)"  ><path style="stroke: none; stroke-width: 1; stroke-dasharray: none; stroke-linecap: butt; stroke-dashoffset: 0; stroke-linejoin: miter; stroke-miterlimit: 4; fill: rgb(61,138,245); fill-rule: nonzero; opacity: 1;"  transform=" translate(-14.77, -16.34)" d="M 14.9417 15.19 C 15.4271 15.0443 15.9534 15.287 16.1516 15.7652 C 16.3628 16.2754 16.1207 16.8605 15.6106 17.0718 L 14.6878 17.4537 C 14.1775 17.6648 13.5924 17.4228 13.3811 16.9127 C 13.17 16.4025 13.4121 15.8173 13.9221 15.606 L 14.846 15.2242 L 14.9417 15.19 Z" stroke-linecap="round" /></g><g transform="matrix(1 0 0 1 14.77 13.66)"  ><path style="stroke: none; stroke-width: 1; stroke-dasharray: none; stroke-linecap: butt; stroke-dashoffset: 0; stroke-linejoin: miter; stroke-miterlimit: 4; fill: rgb(61,138,245); fill-rule: nonzero; opacity: 1;"  transform=" translate(-14.77, -13.66)" d="M 13.3811 13.0862 C 13.5796 12.6079 14.1066 12.3649 14.5921 12.511 L 14.6878 12.5452 L 15.6116 12.928 L 15.7034 12.9719 C 16.1498 13.2124 16.3501 13.7572 16.1516 14.2356 C 15.9399 14.7454 15.355 14.9871 14.845 14.7756 L 13.9221 14.3928 L 13.8294 14.3489 C 13.3833 14.1084 13.183 13.5644 13.3811 13.0862 Z" stroke-linecap="round" /></g><g transform="matrix(1 0 0 1 16.66 11.77)"  ><path style="stroke: none; stroke-width: 1; stroke-dasharray: none; stroke-linecap: butt; stroke-dashoffset: 0; stroke-linejoin: miter; stroke-miterlimit: 4; fill: rgb(61,138,245); fill-rule: nonzero; opacity: 1;"  transform=" translate(-16.66, -11.77)" d="M 16.0862 10.3812 C 16.5644 10.183 17.1084 10.3833 17.3489 10.8294 L 17.3928 10.9222 L 17.7756 11.845 L 17.8098 11.9407 C 17.956 12.4261 17.7138 12.9531 17.2356 13.1517 C 16.7255 13.3633 16.1397 13.1216 15.928 12.6116 L 15.5452 11.6878 L 15.511 11.5921 C 15.3649 11.1067 15.6079 10.5796 16.0862 10.3812 Z" stroke-linecap="round" /></g><g transform="matrix(1 0 0 1 16.66 18.23)"  ><path style="stroke: none; stroke-width: 1; stroke-dasharray: none; stroke-linecap: butt; stroke-dashoffset: 0; stroke-linejoin: miter; stroke-miterlimit: 4; fill: rgb(61,138,245); fill-rule: nonzero; opacity: 1;"  transform=" translate(-16.66, -18.23)" d="M 15.928 17.3892 C 16.1395 16.8791 16.7245 16.6369 17.2347 16.8482 C 17.7448 17.0596 17.9871 17.6446 17.7757 18.1548 L 17.3929 19.0786 C 17.1814 19.5888 16.5964 19.8311 16.0862 19.6197 C 15.576 19.4082 15.3337 18.8232 15.5452 18.313 L 15.928 17.3892 Z" stroke-linecap="round" /></g><g transform="matrix(1 0 0 1 19.34 11.77)"  ><path style="stroke: none; stroke-width: 1; stroke-dasharray: none; stroke-linecap: butt; stroke-dashoffset: 0; stroke-linejoin: miter; stroke-miterlimit: 4; fill: rgb(61,138,245); fill-rule: nonzero; opacity: 1;"  transform=" translate(-19.34, -11.77)" d="M 20.0718 12.6116 C 19.8601 13.1214 19.2751 13.363 18.7651 13.1517 C 18.2551 12.9401 18.0127 12.3551 18.2241 11.845 L 20.0718 12.6116 Z M 18.6509 10.8294 C 18.8914 10.3831 19.4362 10.1827 19.9145 10.3812 C 20.3927 10.5797 20.6349 11.1067 20.4888 11.5921 L 20.4546 11.6878 L 20.0718 12.6116 L 18.2241 11.845 L 18.6069 10.9222 L 18.6509 10.8294 Z" stroke-linecap="round" /></g><g transform="matrix(1 0 0 1 19.34 18.23)"  ><path style="stroke: none; stroke-width: 1; stroke-dasharray: none; stroke-linecap: butt; stroke-dashoffset: 0; stroke-linejoin: miter; stroke-miterlimit: 4; fill: rgb(61,138,245); fill-rule: nonzero; opacity: 1;"  transform=" translate(-19.34, -18.23)" d="M 18.7661 16.8482 C 19.2445 16.6504 19.7878 16.8511 20.0279 17.2974 L 20.0718 17.3902 L 20.4536 18.314 L 20.4888 18.4107 C 20.6339 18.8961 20.39 19.4219 19.9116 19.6197 C 19.4332 19.8174 18.8899 19.6168 18.6499 19.1704 L 18.606 19.0777 L 18.2241 18.1538 L 18.19 18.0572 C 18.0448 17.5717 18.2877 17.0459 18.7661 16.8482 Z" stroke-linecap="round" /></g><g transform="matrix(1 0 0 1 21.23 13.66)"  ><path style="stroke: none; stroke-width: 1; stroke-dasharray: none; stroke-linecap: butt; stroke-dashoffset: 0; stroke-linejoin: miter; stroke-miterlimit: 4; fill: rgb(61,138,245); fill-rule: nonzero; opacity: 1;"  transform=" translate(-21.23, -13.66)" d="M 21.4097 12.511 C 21.8951 12.3653 22.4215 12.6079 22.6197 13.0862 C 22.8179 13.5645 22.6176 14.1085 22.1715 14.3489 L 22.0787 14.3928 L 21.1549 14.7756 C 20.6447 14.9871 20.0597 14.7448 19.8482 14.2346 C 19.6369 13.7245 19.8791 13.1394 20.3892 12.928 L 21.3131 12.5452 L 21.4097 12.511 Z" stroke-linecap="round" /></g><g transform="matrix(1 0 0 1 21.23 16.34)"  ><path style="stroke: none; stroke-width: 1; stroke-dasharray: none; stroke-linecap: butt; stroke-dashoffset: 0; stroke-linejoin: miter; stroke-miterlimit: 4; fill: rgb(61,138,245); fill-rule: nonzero; opacity: 1;"  transform=" translate(-21.23, -16.34)" d="M 19.8482 15.7652 C 20.0464 15.287 20.5728 15.0444 21.0581 15.19 L 21.1548 15.2242 L 22.0786 15.607 L 22.1714 15.6509 C 22.6176 15.8913 22.8178 16.4353 22.6197 16.9136 C 22.4214 17.3919 21.8951 17.6346 21.4097 17.4888 L 21.313 17.4546 L 20.3892 17.0718 L 20.2964 17.0279 C 19.8503 16.7875 19.65 16.2434 19.8482 15.7652 Z" stroke-linecap="round" /></g><g transform="matrix(1 0 0 1 18 15)"  ><path style="stroke: none; stroke-width: 1; stroke-dasharray: none; stroke-linecap: butt; stroke-dashoffset: 0; stroke-linejoin: miter; stroke-miterlimit: 4; fill: rgb(61,138,245); fill-rule: nonzero; opacity: 1;"  transform=" translate(-18, -15)" d="M 20 15 C 20 13.8954 19.1046 13 18 13 C 16.8954 13 16 13.8954 16 15 C 16 16.1046 16.8954 17 18 17 C 19.1046 17 20 16.1046 20 15 Z M 22 15 C 22 17.2091 20.2091 19 18 19 C 15.7909 19 14 17.2091 14 15 C 14 12.7909 15.7909 11 18 11 C 20.2091 11 22 12.7909 22 15 Z" stroke-linecap="round" /></g><g transform="matrix(1 0 0 1 9 7)"  ><path style="stroke: none; stroke-width: 1; stroke-dasharray: none; stroke-linecap: butt; stroke-dashoffset: 0; stroke-linejoin: miter; stroke-miterlimit: 4; fill: rgb(61,138,245); fill-rule: nonzero; opacity: 1;"  transform=" translate(-9, -7)" d="M 12 7 C 12 5.34315 10.6569 4 9 4 C 7.34315 4 6 5.34315 6 7 C 6 8.65685 7.34315 10 9 10 C 10.6569 10 12 8.65685 12 7 Z M 14 7 C 14 9.76142 11.7614 12 9 12 C 6.23858 12 4 9.76142 4 7 C 4 4.23858 6.23858 2 9 2 C 11.7614 2 14 4.23858 14 7 Z" stroke-linecap="round" /></g></g></g></svg>