<svg xmlns="http://www.w3.org/2000/svg" viewBox="0 0 669 320"><g transform="matrix(1 0 0 1 0 0)"  ><g style=""   ><g transform="matrix(1 0 0 1 334.5 160)"  ><g style=""   ><g transform="matrix(1 0 0 1 15 102)"  ><line style="stroke: rgb(222,225,230); stroke-width: 1; stroke-dasharray: 3 3; stroke-linecap: butt; stroke-dashoffset: 0; stroke-linejoin: miter; stroke-miterlimit: 4; fill: none; fill-rule: nonzero; opacity: 1;"  x1="-309.5" y1="0" x2="309.5" y2="0" /></g><g transform="matrix(1 0 0 1 15 39)"  ><line style="stroke: rgb(222,225,230); stroke-width: 1; stroke-dasharray: 3 3; stroke-linecap: butt; stroke-dashoffset: 0; stroke-linejoin: miter; stroke-miterlimit: 4; fill: none; fill-rule: nonzero; opacity: 1;"  x1="-309.5" y1="0" x2="309.5" y2="0" /></g><g transform="matrix(1 0 0 1 15 -24)"  ><line style="stroke: rgb(222,225,230); stroke-width: 1; stroke-dasharray: 3 3; stroke-linecap: butt; stroke-dashoffset: 0; stroke-linejoin: miter; stroke-miterlimit: 4; fill: none; fill-rule: nonzero; opacity: 1;"  x1="-309.5" y1="0" x2="309.5" y2="0" /></g><g transform="matrix(1 0 0 1 15 -87)"  ><line style="stroke: rgb(222,225,230); stroke-width: 1; stroke-dasharray: 3 3; stroke-linecap: butt; stroke-dashoffset: 0; stroke-linejoin: miter; stroke-miterlimit: 4; fill: none; fill-rule: nonzero; opacity: 1;"  x1="-309.5" y1="0" x2="309.5" y2="0" /></g><g transform="matrix(1 0 0 1 15 -150)"  ><line style="stroke: rgb(222,225,230); stroke-width: 1; stroke-dasharray: 3 3; stroke-linecap: butt; stroke-dashoffset: 0; stroke-linejoin: miter; stroke-miterlimit: 4; fill: none; fill-rule: nonzero; opacity: 1;"  x1="-309.5" y1="0" x2="309.5" y2="0" /></g><g transform="matrix(1 0 0 1 -294.5 106.14)" style=""  ><text xml:space="preserve" font-family="Manrope" font-size="12" font-style="normal" font-weight="400" style="stroke: none; stroke-width: 1; stroke-dasharray: none; stroke-linecap: butt; stroke-dashoffset: 0; stroke-linejoin: miter; stroke-miterlimit: 4; fill: rgb(86,93,109); fill-rule: nonzero; opacity: 1; white-space: pre;" ></text></g><g transform="matrix(1 0 0 1 -170.7 106.14)" style=""  ><text xml:space="preserve" font-family="Manrope" font-size="12" font-style="normal" font-weight="400" style="stroke: none; stroke-width: 1; stroke-dasharray: none; stroke-linecap: butt; stroke-dashoffset: 0; stroke-linejoin: miter; stroke-miterlimit: 4; fill: rgb(86,93,109); fill-rule: nonzero; opacity: 1; white-space: pre;" ></text></g><g transform="matrix(1 0 0 1 -46.9 106.14)" style=""  ><text xml:space="preserve" font-family="Manrope" font-size="12" font-style="normal" font-weight="400" style="stroke: none; stroke-width: 1; stroke-dasharray: none; stroke-linecap: butt; stroke-dashoffset: 0; stroke-linejoin: miter; stroke-miterlimit: 4; fill: rgb(86,93,109); fill-rule: nonzero; opacity: 1; white-space: pre;" ></text></g><g transform="matrix(1 0 0 1 76.9 106.14)" style=""  ><text xml:space="preserve" font-family="Manrope" font-size="12" font-style="normal" font-weight="400" style="stroke: none; stroke-width: 1; stroke-dasharray: none; stroke-linecap: butt; stroke-dashoffset: 0; stroke-linejoin: miter; stroke-miterlimit: 4; fill: rgb(86,93,109); fill-rule: nonzero; opacity: 1; white-space: pre;" ></text></g><g transform="matrix(1 0 0 1 200.7 106.14)" style=""  ><text xml:space="preserve" font-family="Manrope" font-size="12" font-style="normal" font-weight="400" style="stroke: none; stroke-width: 1; stroke-dasharray: none; stroke-linecap: butt; stroke-dashoffset: 0; stroke-linejoin: miter; stroke-miterlimit: 4; fill: rgb(86,93,109); fill-rule: nonzero; opacity: 1; white-space: pre;" ></text></g><g transform="matrix(1 0 0 1 323.98 106.14)" style=""  ><text xml:space="preserve" font-family="Manrope" font-size="12" font-style="normal" font-weight="400" style="stroke: none; stroke-width: 1; stroke-dasharray: none; stroke-linecap: butt; stroke-dashoffset: 0; stroke-linejoin: miter; stroke-miterlimit: 4; fill: rgb(86,93,109); fill-rule: nonzero; opacity: 1; white-space: pre;" ></text></g><g transform="matrix(1 0 0 1 -303.5 98.14)" style=""  ><text xml:space="preserve" font-family="Manrope" font-size="12" font-style="normal" font-weight="400" style="stroke: none; stroke-width: 1; stroke-dasharray: none; stroke-linecap: butt; stroke-dashoffset: 0; stroke-linejoin: miter; stroke-miterlimit: 4; fill: rgb(86,93,109); fill-rule: nonzero; opacity: 1; white-space: pre;" ></text></g><g transform="matrix(1 0 0 1 -303.5 35.14)" style=""  ><text xml:space="preserve" font-family="Manrope" font-size="12" font-style="normal" font-weight="400" style="stroke: none; stroke-width: 1; stroke-dasharray: none; stroke-linecap: butt; stroke-dashoffset: 0; stroke-linejoin: miter; stroke-miterlimit: 4; fill: rgb(86,93,109); fill-rule: nonzero; opacity: 1; white-space: pre;" ></text></g><g transform="matrix(1 0 0 1 -303.5 -27.86)" style=""  ><text xml:space="preserve" font-family="Manrope" font-size="12" font-style="normal" font-weight="400" style="stroke: none; stroke-width: 1; stroke-dasharray: none; stroke-linecap: butt; stroke-dashoffset: 0; stroke-linejoin: miter; stroke-miterlimit: 4; fill: rgb(86,93,109); fill-rule: nonzero; opacity: 1; white-space: pre;" ></text></g><g transform="matrix(1 0 0 1 -303.5 -90.86)" style=""  ><text xml:space="preserve" font-family="Manrope" font-size="12" font-style="normal" font-weight="400" style="stroke: none; stroke-width: 1; stroke-dasharray: none; stroke-linecap: butt; stroke-dashoffset: 0; stroke-linejoin: miter; stroke-miterlimit: 4; fill: rgb(86,93,109); fill-rule: nonzero; opacity: 1; white-space: pre;" ></text></g><g transform="matrix(1 0 0 1 -303.5 -153.86)" style=""  ><text xml:space="preserve" font-family="Manrope" font-size="12" font-style="normal" font-weight="400" style="stroke: none; stroke-width: 1; stroke-dasharray: none; stroke-linecap: butt; stroke-dashoffset: 0; stroke-linejoin: miter; stroke-miterlimit: 4; fill: rgb(86,93,109); fill-rule: nonzero; opacity: 1; white-space: pre;" ></text></g><g transform="matrix(1 0 0 1 15 -3)"  ><linearGradient id="SVGID_colorL1_272" gradientUnits="objectBoundingBox" gradientTransform="matrix(1 0 0 1 0 0)"  x1="0" y1="0" x2="0" y2="1"><stop offset="5%" style="stop-color:rgb(61,138,245);stop-opacity: 0.3"/><stop offset="95%" style="stop-color:rgb(61,138,245);stop-opacity: 0"/></linearGradient><path style="stroke: none; stroke-width: 2; stroke-dasharray: none; stroke-linecap: butt; stroke-dashoffset: 0; stroke-linejoin: miter; stroke-miterlimit: 4; fill: url(#SVGID_colorL1_272); fill-rule: nonzero; opacity: 1;"  transform=" translate(-349.5, -157)" d="M 40 52 C 81.267 64.25 122.533 76.5 163.8 94 C 205.067 111.5 246.333 139.5 287.6 157 C 328.867 174.5 370.133 188.5 411.4 199 C 452.667 209.5 493.933 213 535.2 220 C 576.467 227 617.733 234 659 241 L 659 262 C 617.733 262 576.467 262 535.2 262 C 493.933 262 452.667 262 411.4 262 C 370.133 262 328.867 262 287.6 262 C 246.333 262 205.067 262 163.8 262 C 122.533 262 81.267 262 40 262 Z" stroke-linecap="round" /></g><g transform="matrix(1 0 0 1 15 -13.5)"  ><path style="stroke: rgb(61,138,245); stroke-width: 2; stroke-dasharray: none; stroke-linecap: butt; stroke-dashoffset: 0; stroke-linejoin: miter; stroke-miterlimit: 4; fill: none; fill-rule: nonzero; opacity: 1;"  transform=" translate(-349.5, -146.5)" d="M 40 52 C 81.267 64.25 122.533 76.5 163.8 94 C 205.067 111.5 246.333 139.5 287.6 157 C 328.867 174.5 370.133 188.5 411.4 199 C 452.667 209.5 493.933 213 535.2 220 C 576.467 227 617.733 234 659 241" stroke-linecap="round" /></g><g transform="matrix(1 0 0 1 15 -24)"  ><linearGradient id="SVGID_colorL4_273" gradientUnits="objectBoundingBox" gradientTransform="matrix(1 0 0 1 0 0)"  x1="0" y1="0" x2="0" y2="1"><stop offset="5%" style="stop-color:rgb(247,213,110);stop-opacity: 0.3"/><stop offset="95%" style="stop-color:rgb(247,213,110);stop-opacity: 0"/></linearGradient><path style="stroke: none; stroke-width: 2; stroke-dasharray: none; stroke-linecap: butt; stroke-dashoffset: 0; stroke-linejoin: miter; stroke-miterlimit: 4; fill: url(#SVGID_colorL4_273); fill-rule: nonzero; opacity: 1;"  transform=" translate(-349.5, -136)" d="M 40 262 C 81.267 256.75 122.533 251.5 163.8 241 C 205.067 230.5 246.333 213 287.6 199 C 328.867 185 370.133 174.5 411.4 157 C 452.667 139.5 493.933 118.5 535.2 94 C 576.467 69.5 617.733 39.75 659 10 L 659 262 C 617.733 262 576.467 262 535.2 262 C 493.933 262 452.667 262 411.4 262 C 370.133 262 328.867 262 287.6 262 C 246.333 262 205.067 262 163.8 262 C 122.533 262 81.267 262 40 262 Z" stroke-linecap="round" /></g><g transform="matrix(1 0 0 1 15 -24)"  ><path style="stroke: rgb(247,213,110); stroke-width: 2; stroke-dasharray: none; stroke-linecap: butt; stroke-dashoffset: 0; stroke-linejoin: miter; stroke-miterlimit: 4; fill: none; fill-rule: nonzero; opacity: 1;"  transform=" translate(-349.5, -136)" d="M 40 262 C 81.267 256.75 122.533 251.5 163.8 241 C 205.067 230.5 246.333 213 287.6 199 C 328.867 185 370.133 174.5 411.4 157 C 452.667 139.5 493.933 118.5 535.2 94 C 576.467 69.5 617.733 39.75 659 10" stroke-linecap="round" /></g></g></g></g></g></svg>