<svg xmlns="http://www.w3.org/2000/svg" width="16" height="16"  viewBox="0 0 16 16"><g transform="matrix(1 0 0 1 0 0)"  ><g style=""   ><g transform="matrix(0.67 0 0 0.67 8 4)"  ><path style="stroke: none; stroke-width: 1; stroke-dasharray: none; stroke-linecap: butt; stroke-dashoffset: 0; stroke-linejoin: miter; stroke-miterlimit: 4; fill: rgb(86,93,109); fill-rule: nonzero; opacity: 1;"  transform=" translate(-12, -6)" d="M 21 5 C 21.5523 5 22 5.44772 22 6 C 22 6.55228 21.5523 7 21 7 L 3 7 C 2.44772 7 2 6.55228 2 6 C 2 5.44772 2.44772 5 3 5 L 21 5 Z" stroke-linecap="round" /></g><g transform="matrix(0.67 0 0 0.67 8 9.33)"  ><path style="stroke: none; stroke-width: 1; stroke-dasharray: none; stroke-linecap: butt; stroke-dashoffset: 0; stroke-linejoin: miter; stroke-miterlimit: 4; fill: rgb(86,93,109); fill-rule: nonzero; opacity: 1;"  transform=" translate(-12, -14)" d="M 4 20 L 4 6 C 4 5.44772 4.44772 5 5 5 C 5.55228 5 6 5.44772 6 6 L 6 20 C 6 20.1748 6.09738 20.4333 6.33203 20.668 C 6.56669 20.9026 6.82523 21 7 21 L 17 21 C 17.1748 21 17.4333 20.9026 17.668 20.668 C 17.9026 20.4333 18 20.1748 18 20 L 18 6 C 18 5.44772 18.4477 5 19 5 C 19.5523 5 20 5.44772 20 6 L 20 20 C 20 20.8252 19.5974 21.5667 19.082 22.082 C 18.5667 22.5974 17.8252 23 17 23 L 7 23 C 6.17477 23 5.43331 22.5974 4.91797 22.082 C 4.40262 21.5667 4 20.8252 4 20 Z" stroke-linecap="round" /></g><g transform="matrix(0.67 0 0 0.67 8 2.67)"  ><path style="stroke: none; stroke-width: 1; stroke-dasharray: none; stroke-linecap: butt; stroke-dashoffset: 0; stroke-linejoin: miter; stroke-miterlimit: 4; fill: rgb(86,93,109); fill-rule: nonzero; opacity: 1;"  transform=" translate(-12, -4)" d="M 15 6 L 15 4 C 15 3.82523 14.9026 3.56669 14.668 3.33203 C 14.4333 3.09738 14.1748 3 14 3 L 10 3 C 9.82523 3 9.56669 3.09738 9.33203 3.33203 C 9.09738 3.56669 9 3.82523 9 4 L 9 6 C 9 6.55228 8.55228 7 8 7 C 7.44772 7 7 6.55228 7 6 L 7 4 C 7 3.17477 7.40262 2.43331 7.91797 1.91797 C 8.43331 1.40262 9.17477 1 10 1 L 14 1 C 14.8252 1 15.5667 1.40262 16.082 1.91797 C 16.5974 2.43331 17 3.17477 17 4 L 17 6 C 17 6.55228 16.5523 7 16 7 C 15.4477 7 15 6.55228 15 6 Z" stroke-linecap="round" /></g><g transform="matrix(0.67 0 0 0.67 6.67 9.33)"  ><path style="stroke: none; stroke-width: 1; stroke-dasharray: none; stroke-linecap: butt; stroke-dashoffset: 0; stroke-linejoin: miter; stroke-miterlimit: 4; fill: rgb(86,93,109); fill-rule: nonzero; opacity: 1;"  transform=" translate(-10, -14)" d="M 9 17 L 9 11 C 9 10.4477 9.44772 10 10 10 C 10.5523 10 11 10.4477 11 11 L 11 17 C 11 17.5523 10.5523 18 10 18 C 9.44772 18 9 17.5523 9 17 Z" stroke-linecap="round" /></g><g transform="matrix(0.67 0 0 0.67 9.33 9.33)"  ><path style="stroke: none; stroke-width: 1; stroke-dasharray: none; stroke-linecap: butt; stroke-dashoffset: 0; stroke-linejoin: miter; stroke-miterlimit: 4; fill: rgb(86,93,109); fill-rule: nonzero; opacity: 1;"  transform=" translate(-14, -14)" d="M 13 17 L 13 11 C 13 10.4477 13.4477 10 14 10 C 14.5523 10 15 10.4477 15 11 L 15 17 C 15 17.5523 14.5523 18 14 18 C 13.4477 18 13 17.5523 13 17 Z" stroke-linecap="round" /></g></g></g></svg>