<svg xmlns="http://www.w3.org/2000/svg" width="16" height="16"  viewBox="0 0 16 16"><g transform="matrix(1 0 0 1 0 0)"  ><g style=""   ><g transform="matrix(0.67 0 0 0.67 8 8)"  ><path style="stroke: none; stroke-width: 1; stroke-dasharray: none; stroke-linecap: butt; stroke-dashoffset: 0; stroke-linejoin: miter; stroke-miterlimit: 4; fill: rgb(86,93,109); fill-rule: nonzero; opacity: 1;"  transform=" translate(-12, -12)" d="M 21 4.81897 C 21.0001 4.33657 20.8079 3.87399 20.4668 3.53284 C 20.1259 3.19184 19.6638 2.99982 19.1817 2.99963 C 18.6995 2.99957 18.2357 3.1901 17.8945 3.53088 L 17.8955 3.53186 L 4.54787 16.8824 C 4.43189 16.9982 4.34589 17.1409 4.29787 17.2975 L 3.24904 20.7487 L 6.70607 19.7008 L 6.82033 19.6588 C 6.932 19.6093 7.0341 19.5395 7.12111 19.4528 L 20.4668 6.1051 L 20.5879 5.97131 C 20.853 5.64776 20.9999 5.24093 21 4.81897 Z M 23 4.81897 C 22.9999 5.76857 22.6462 6.68197 22.0117 7.38245 L 21.8809 7.51917 L 8.53322 20.8688 C 8.18551 21.2154 7.75781 21.472 7.2881 21.6149 L 2.93458 22.9352 L 2.93165 22.9362 C 2.67254 23.014 2.39717 23.0196 2.13478 22.9537 C 1.87233 22.8878 1.63202 22.7523 1.44044 22.5612 C 1.24881 22.3698 1.11236 22.1293 1.04591 21.8668 C 0.979599 21.6045 0.985109 21.3292 1.06251 21.0699 L 1.06447 21.066 L 2.38478 16.7135 L 2.38576 16.7106 L 2.44533 16.5367 C 2.57443 16.1926 2.76589 15.8753 3.00978 15.6002 L 3.13576 15.4655 L 16.4805 2.1178 L 16.6182 1.98694 C 17.3188 1.3528 18.2322 0.999515 19.1817 0.999634 C 20.1944 0.999821 21.1658 1.40256 21.8818 2.11877 C 22.5978 2.83501 23.0001 3.80626 23 4.81897 Z" stroke-linecap="round" /></g></g></g></svg>