<svg xmlns="http://www.w3.org/2000/svg" width="32" height="32"  viewBox="0 0 32 32"><g transform="matrix(1 0 0 1 0 0)"  ><g style=""   ><g transform="matrix(1.33 0 0 1.33 16 22.67)"  ><path style="stroke: none; stroke-width: 1; stroke-dasharray: none; stroke-linecap: butt; stroke-dashoffset: 0; stroke-linejoin: miter; stroke-miterlimit: 4; fill: rgb(61,138,245); fill-rule: nonzero; opacity: 1;"  transform=" translate(-12, -17)" d="M 11 21 L 11 13 C 11 12.4477 11.4477 12 12 12 C 12.5523 12 13 12.4477 13 13 L 13 21 C 13 21.5523 12.5523 22 12 22 C 11.4477 22 11 21.5523 11 21 Z" stroke-linecap="round" /></g><g transform="matrix(1.33 0 0 1.33 16 12.83)"  ><path style="stroke: none; stroke-width: 1; stroke-dasharray: none; stroke-linecap: butt; stroke-dashoffset: 0; stroke-linejoin: miter; stroke-miterlimit: 4; fill: rgb(61,138,245); fill-rule: nonzero; opacity: 1;"  transform=" translate(-12, -9.62)" d="M 8.36978 2.02809 C 9.57988 1.93212 10.7965 2.11279 11.9264 2.55641 C 13.0562 3.00005 14.0707 3.69509 14.8922 4.58864 C 15.5422 5.29569 16.0556 6.11344 16.4147 6.99977 L 17.4997 6.99977 L 17.7204 7.00466 C 18.8225 7.04874 19.8883 7.42274 20.777 8.08181 C 21.7247 8.78461 22.4207 9.77407 22.7633 10.9031 C 23.1059 12.0324 23.076 13.2422 22.6784 14.3533 C 22.2807 15.4643 21.5366 16.4185 20.5553 17.074 L 20.4674 17.1258 C 20.0197 17.3633 19.4562 17.2281 19.1686 16.7976 C 18.8618 16.3384 18.9857 15.7177 19.445 15.4109 L 19.6715 15.2449 C 20.1839 14.8397 20.5742 14.298 20.7956 13.6795 C 21.0486 12.9725 21.0682 12.2027 20.8502 11.4841 C 20.6323 10.7655 20.1888 10.1356 19.5856 9.68825 C 19.0579 9.29694 18.432 9.06382 17.7809 9.01149 L 17.4997 8.99977 L 15.7096 8.99977 C 15.2677 8.99961 14.8781 8.7094 14.7516 8.28591 C 14.4912 7.4137 14.0356 6.61228 13.4196 5.94216 C 12.8034 5.27193 12.0424 4.75046 11.195 4.41774 C 10.3476 4.08511 9.43545 3.94929 8.52798 4.02126 C 7.62048 4.09327 6.74104 4.37068 5.95669 4.83278 C 5.17228 5.29492 4.50347 5.93026 4.00064 6.68923 C 3.49794 7.44809 3.17405 8.31128 3.05435 9.21364 C 2.93464 10.1162 3.02261 11.0344 3.31021 11.8982 C 3.59781 12.7619 4.07774 13.5494 4.7145 14.2 C 5.10067 14.5947 5.09448 15.2278 4.69985 15.614 C 4.30522 16.0003 3.67212 15.9929 3.28579 15.5984 L 2.9772 15.2644 C 2.28054 14.4667 1.7473 13.5378 1.41177 12.53 C 1.02831 11.3783 0.912339 10.1543 1.07192 8.95095 C 1.23152 7.74768 1.66329 6.59664 2.33364 5.58474 C 3.00409 4.57277 3.89616 3.72631 4.94204 3.11013 C 5.98778 2.49406 7.15987 2.12411 8.36978 2.02809 Z" stroke-linecap="round" /></g><g transform="matrix(1.33 0 0 1.33 16 20)"  ><path style="stroke: none; stroke-width: 1; stroke-dasharray: none; stroke-linecap: butt; stroke-dashoffset: 0; stroke-linejoin: miter; stroke-miterlimit: 4; fill: rgb(61,138,245); fill-rule: nonzero; opacity: 1;"  transform=" translate(-12, -15)" d="M 11.3691 12.2246 C 11.7619 11.9043 12.3409 11.9269 12.707 12.293 L 16.707 16.293 L 16.7754 16.3692 C 17.0957 16.7619 17.0731 17.3409 16.707 17.707 C 16.3409 18.0732 15.7619 18.0958 15.3691 17.7754 L 15.293 17.707 L 12 14.4141 L 8.70702 17.707 C 8.31649 18.0976 7.68348 18.0976 7.29295 17.707 C 6.90243 17.3165 6.90243 16.6835 7.29295 16.293 L 11.293 12.293 L 11.3691 12.2246 Z" stroke-linecap="round" /></g></g></g></svg>