<svg xmlns="http://www.w3.org/2000/svg" viewBox="0 0 288 280"><g transform="matrix(1 0 0 1 0 0)"  ><g style=""   ><g transform="matrix(1 0 0 1 144 140)"  ><g style=""   ><g transform="matrix(1 0 0 1 5.88 -47.5)"  ><path style="stroke: rgb(255,255,255); stroke-width: 1; stroke-dasharray: none; stroke-linecap: butt; stroke-dashoffset: 0; stroke-linejoin: miter; stroke-miterlimit: 4; fill: rgb(176,236,147); fill-rule: nonzero; opacity: 1;"  transform=" translate(-149.88, -92.5)" d="M 239 140 C 239 96.63230674103347 209.63075670828783 58.7697064359525 167.6255392806612 47.98459969278008 C 125.6203218530346 37.19949294960766 81.64341096065633 56.23000165941144 60.75086539583299 94.23340096033702 L 87.04006579714887 108.68601118338852 C 101.33496539413323 82.68368534591312 131.42443074155 69.66281096552103 160.16484266571558 77.042094526639 C 188.90525458988114 84.42137808775698 209 110.32736777018083 209 140 Z" stroke-linecap="round" /></g><g transform="matrix(1 0 0 1 -54.26 28.06)"  ><path style="stroke: rgb(255,255,255); stroke-width: 1; stroke-dasharray: none; stroke-linecap: butt; stroke-dashoffset: 0; stroke-linejoin: miter; stroke-miterlimit: 4; fill: rgb(110,201,247); fill-rule: nonzero; opacity: 1;"  transform=" translate(-89.74, -168.06)" d="M 56.42300059909245 103.18601928705024 C 45.45113442548027 129.28705749874436 46.69319509209997 158.92172723817387 59.81065997303462 184.01312333638685 C 72.92812485396927 209.10451943459984 96.55374959911326 227.03734466283038 124.24838937231281 232.92402206971153 L 130.4857400968456 203.57959404769736 C 111.53677604149854 199.55186740088394 95.37187490008422 187.28203961314725 86.39676734997104 170.114242282791 C 77.42165979985786 152.94644495243475 76.57182881743385 132.6700919728251 84.07889514674744 114.81148688061333 Z" stroke-linecap="round" /></g><g transform="matrix(1 0 0 1 28.27 70.72)"  ><path style="stroke: rgb(255,255,255); stroke-width: 1; stroke-dasharray: none; stroke-linecap: butt; stroke-dashoffset: 0; stroke-linejoin: miter; stroke-miterlimit: 4; fill: rgb(247,201,110); fill-rule: nonzero; opacity: 1;"  transform=" translate(-172.27, -210.72)" d="M 134.06979598957292 234.47958005998598 C 162.22804697145062 237.4391314958552 190.23889908954288 227.68472075593925 210.46801734876968 207.87490456511637 L 189.47811713336873 186.44072417613225 C 175.6371414823188 199.99480893827425 156.47182161204518 206.66887944453254 137.20564988760253 204.64392319893778 Z" stroke-linecap="round" /></g><g transform="matrix(1 0 0 1 72.28 33.67)"  ><path style="stroke: rgb(255,255,255); stroke-width: 1; stroke-dasharray: none; stroke-linecap: butt; stroke-dashoffset: 0; stroke-linejoin: miter; stroke-miterlimit: 4; fill: rgb(197,204,211); fill-rule: nonzero; opacity: 1;"  transform=" translate(-216.28, -173.67)" d="M 217.19875806369993 200.55527902612556 C 229.12145890258583 186.14320945585808 236.52442679193896 168.5322447664905 238.47958005998595 149.93020401042705 L 208.64392319893778 146.79435011239747 C 207.30618675237932 159.52206220865142 202.2409981965061 171.5716696276924 194.0833607804263 181.43255933366487 Z" stroke-linecap="round" /></g></g></g></g></g></svg>