<svg xmlns="http://www.w3.org/2000/svg" width="20" height="20"  viewBox="0 0 20 20"><g transform="matrix(1 0 0 1 0 0)"  ><g style=""   ><g transform="matrix(0.83 0 0 0.83 10 10)"  ><path style="stroke: none; stroke-width: 1; stroke-dasharray: none; stroke-linecap: butt; stroke-dashoffset: 0; stroke-linejoin: miter; stroke-miterlimit: 4; fill: rgb(61,138,245); fill-rule: nonzero; opacity: 1;"  transform=" translate(-12, -12)" d="M 2 19 L 2 3 C 2 2.44772 2.44772 2 3 2 C 3.55228 2 4 2.44772 4 3 L 4 19 C 4 19.2652 4.10543 19.5195 4.29297 19.707 C 4.48051 19.8946 4.73478 20 5 20 L 21 20 C 21.5523 20 22 20.4477 22 21 C 22 21.5523 21.5523 22 21 22 L 5 22 C 4.20435 22 3.44152 21.6837 2.87891 21.1211 C 2.3163 20.5585 2 19.7956 2 19 Z" stroke-linecap="round" /></g><g transform="matrix(0.83 0 0 0.83 10.83 9.58)"  ><path style="stroke: none; stroke-width: 1; stroke-dasharray: none; stroke-linecap: butt; stroke-dashoffset: 0; stroke-linejoin: miter; stroke-miterlimit: 4; fill: rgb(61,138,245); fill-rule: nonzero; opacity: 1;"  transform=" translate(-13, -11.5)" d="M 18.3691 8.22462 C 18.7619 7.90427 19.3409 7.92686 19.707 8.29298 C 20.0731 8.65909 20.0957 9.2381 19.7754 9.63087 L 19.707 9.70704 L 14.707 14.707 C 14.3165 15.0976 13.6835 15.0976 13.293 14.707 L 10 11.4141 L 7.70703 13.707 C 7.31651 14.0976 6.68349 14.0976 6.29297 13.707 C 5.90245 13.3165 5.90245 12.6835 6.29297 12.293 L 9.29297 9.29298 L 9.36914 9.22462 C 9.76192 8.90427 10.3409 8.92686 10.707 9.29298 L 14 12.5859 L 18.293 8.29298 L 18.3691 8.22462 Z" stroke-linecap="round" /></g></g></g></svg>