<svg xmlns="http://www.w3.org/2000/svg" width="20" height="20"  viewBox="0 0 20 20"><g transform="matrix(1 0 0 1 0 0)"  ><g style=""   ><g transform="matrix(0.83 0 0 0.83 10 11.25)"  ><path style="stroke: none; stroke-width: 1; stroke-dasharray: none; stroke-linecap: butt; stroke-dashoffset: 0; stroke-linejoin: miter; stroke-miterlimit: 4; fill: rgb(86,93,109); fill-rule: nonzero; opacity: 1;"  transform=" translate(-12, -13.5)" d="M 21 16 L 21 11 C 21 10.7348 20.8946 10.4805 20.707 10.293 C 20.5195 10.1054 20.2652 10 20 10 L 4 10 C 3.73478 10 3.48051 10.1054 3.29297 10.293 C 3.10543 10.4805 3 10.7348 3 11 L 3 16 L 3.00488 16.0986 C 3.02757 16.3276 3.12883 16.5429 3.29297 16.707 C 3.48051 16.8946 3.73478 17 4 17 L 6 17 C 6.55228 17 7 17.4477 7 18 C 7 18.5523 6.55228 19 6 19 L 4 19 C 3.20435 19 2.44152 18.6837 1.87891 18.1211 C 1.38671 17.6289 1.08291 16.9835 1.01465 16.2969 L 1 16 L 1 11 C 1 10.2044 1.3163 9.44152 1.87891 8.87891 C 2.44152 8.3163 3.20435 8 4 8 L 20 8 C 20.7957 8 21.5585 8.3163 22.1211 8.87891 C 22.6837 9.44151 23 10.2043 23 11 L 23 16 C 23 16.7957 22.6837 17.5585 22.1211 18.1211 C 21.5585 18.6837 20.7957 19 20 19 L 18 19 C 17.4477 19 17 18.5523 17 18 C 17 17.4477 17.4477 17 18 17 L 20 17 C 20.2652 17 20.5195 16.8946 20.707 16.707 C 20.8946 16.5195 21 16.2652 21 16 Z" stroke-linecap="round" /></g><g transform="matrix(0.83 0 0 0.83 10 4.58)"  ><path style="stroke: none; stroke-width: 1; stroke-dasharray: none; stroke-linecap: butt; stroke-dashoffset: 0; stroke-linejoin: miter; stroke-miterlimit: 4; fill: rgb(86,93,109); fill-rule: nonzero; opacity: 1;"  transform=" translate(-12, -5.5)" d="M 17 9 L 17 3 L 7 3 L 7 9 C 7 9.55228 6.55228 10 6 10 C 5.44772 10 5 9.55228 5 9 L 5 3 C 5 2.46957 5.21087 1.96101 5.58594 1.58594 C 5.96101 1.21086 6.46957 1 7 1 L 17 1 L 17.1973 1.00977 C 17.6553 1.05515 18.0858 1.25765 18.4141 1.58594 C 18.7891 1.96101 19 2.46957 19 3 L 19 9 C 19 9.55228 18.5523 10 18 10 C 17.4477 10 17 9.55228 17 9 Z" stroke-linecap="round" /></g><g transform="matrix(0.83 0 0 0.83 10 15)"  ><path style="stroke: none; stroke-width: 1; stroke-dasharray: none; stroke-linecap: butt; stroke-dashoffset: 0; stroke-linejoin: miter; stroke-miterlimit: 4; fill: rgb(86,93,109); fill-rule: nonzero; opacity: 1;"  transform=" translate(-12, -18)" d="M 7 15 L 7 21 L 17 21 L 17 15 L 7 15 Z M 19 21 C 19 22.1046 18.1046 23 17 23 L 7 23 C 5.89543 23 5 22.1046 5 21 L 5 15 C 5 13.8954 5.89543 13 7 13 L 17 13 C 18.1046 13 19 13.8954 19 15 L 19 21 Z" stroke-linecap="round" /></g></g></g></svg>