<svg xmlns="http://www.w3.org/2000/svg" width="16" height="16"  viewBox="0 0 16 16"><g transform="matrix(1 0 0 1 0 0)"  ><g style=""   ><g transform="matrix(0.67 0 0 0.67 8 8)"  ><path style="stroke: none; stroke-width: 1; stroke-dasharray: none; stroke-linecap: butt; stroke-dashoffset: 0; stroke-linejoin: miter; stroke-miterlimit: 4; fill: rgb(61,138,245); fill-rule: nonzero; opacity: 1;"  transform=" translate(-12, -12)" d="M 2 19 L 2 5 C 2 4.20435 2.3163 3.44152 2.87891 2.87891 C 3.44152 2.3163 4.20435 2 5 2 L 12 2 C 12.5523 2 13 2.44772 13 3 C 13 3.55228 12.5523 4 12 4 L 5 4 C 4.73478 4 4.48051 4.10543 4.29297 4.29297 C 4.10543 4.48051 4 4.73478 4 5 L 4 19 C 4 19.2652 4.10543 19.5195 4.29297 19.707 C 4.48051 19.8946 4.73478 20 5 20 L 19 20 C 19.2652 20 19.5195 19.8946 19.707 19.707 C 19.8946 19.5195 20 19.2652 20 19 L 20 12 C 20 11.4477 20.4477 11 21 11 C 21.5523 11 22 11.4477 22 12 L 22 19 C 22 19.7957 21.6837 20.5585 21.1211 21.1211 C 20.5585 21.6837 19.7957 22 19 22 L 5 22 C 4.20435 22 3.44152 21.6837 2.87891 21.1211 C 2.3163 20.5585 2 19.7956 2 19 Z" stroke-linecap="round" /></g><g transform="matrix(0.67 0 0 0.67 10 6)"  ><path style="stroke: none; stroke-width: 1; stroke-dasharray: none; stroke-linecap: butt; stroke-dashoffset: 0; stroke-linejoin: miter; stroke-miterlimit: 4; fill: rgb(61,138,245); fill-rule: nonzero; opacity: 1;"  transform=" translate(-15, -9)" d="M 20.9911 4.0144 C 20.9657 3.75761 20.8519 3.51586 20.6679 3.33179 C 20.4576 3.1216 20.1722 3.00366 19.8749 3.00366 C 19.6146 3.00368 19.3635 3.09399 19.164 3.25757 L 19.0819 3.33179 L 10.0692 12.3464 L 10.0683 12.3464 C 9.94963 12.4649 9.86262 12.6114 9.81533 12.7722 L 9.23135 14.7673 L 11.2284 14.1843 L 11.3466 14.1414 C 11.4232 14.1081 11.4954 14.0656 11.5614 14.0144 L 11.6552 13.9314 L 20.6679 4.91772 L 20.7421 4.83569 C 20.9057 4.63613 20.996 4.38505 20.996 4.12476 L 20.9911 4.0144 Z M 22.9921 4.28003 C 22.9563 4.99996 22.6722 5.68515 22.1884 6.21948 L 22.0819 6.33179 L 13.0692 15.3464 C 12.7131 15.7023 12.2723 15.9621 11.789 16.1033 L 11.7899 16.1042 L 8.9169 16.9441 L 8.91592 16.9441 C 8.65784 17.0193 8.38434 17.0235 8.12393 16.9568 C 7.86345 16.8901 7.6256 16.7544 7.43545 16.5642 C 7.24549 16.3742 7.10963 16.137 7.04287 15.8767 C 6.97614 15.6162 6.98028 15.3419 7.05557 15.0837 L 7.05655 15.0837 L 7.89639 12.2107 L 7.89639 12.2097 L 7.95498 12.03 C 8.08342 11.6765 8.27724 11.35 8.52627 11.0681 L 8.65518 10.9314 L 17.6679 1.91772 L 17.7802 1.81128 C 18.3527 1.29285 19.0989 1.00369 19.8749 1.00366 C 20.7027 1.00366 21.4966 1.33246 22.0819 1.91772 C 22.6672 2.50303 22.9959 3.29701 22.996 4.12476 L 22.9921 4.28003 Z" stroke-linecap="round" /></g></g></g></svg>